<svg xmlns="http://www.w3.org/2000/svg" viewBox="0 11.899999618530273 285.25 47.099998474121094" data-asc="1.097"><defs/><g fill="#000000"><g transform="scale(0.5, 1)"><path d="M7.05 50.20L7.05 48.65L7.70 48.25Q7.55 47.40 7.50 46.58Q7.45 45.75 7.45 44.90Q7.45 43.95 7.48 43.02Q7.50 42.10 7.50 41.10Q7.50 40.05 7.40 39Q7.30 37.95 7.05 36.90L6.75 36.90Q6.80 39.55 6.93 42.10Q7.05 44.65 7.05 47.30Q6.80 43.50 6.48 39.70Q6.15 35.90 6.15 32Q6.15 30.85 6.28 29.68Q6.40 28.50 6.55 27.35L3.25 28.20L3.30 28.05Q3.20 27.90 3.03 27.50Q2.85 27.10 2.85 27Q2.85 26.75 3.38 26.48Q3.90 26.20 4.58 26Q5.25 25.80 5.88 25.65Q6.50 25.50 6.75 25.45L6.60 24.85Q6.20 24.95 4.98 25.07Q3.75 25.20 2.50 25.20Q1.50 25.20 0.75 25.05Q0 24.90 0 24.40Q0 23.85 1 23.30Q2 22.75 3.58 22.27Q5.15 21.80 7.05 21.40Q8.95 21 10.70 20.70Q12.45 20.40 13.85 20.25Q15.25 20.10 15.80 20.10Q18.35 20.10 20.68 20.73Q23 21.35 24.75 22.67Q26.50 24 27.53 26.05Q28.55 28.10 28.55 30.90Q28.55 32.05 28.20 33.27Q27.85 34.50 27.13 35.63Q26.40 36.75 25.28 37.65Q24.15 38.55 22.60 38.95Q25.20 39.30 27.08 40.15Q28.95 41 30.13 42.20Q31.30 43.40 31.85 44.90Q32.40 46.40 32.40 48.10Q32.40 50.30 31.52 51.85Q30.65 53.40 29.20 54.45Q27.75 55.50 25.90 56.08Q24.05 56.65 22.05 56.95Q20.05 57.25 18.10 57.33Q16.15 57.40 14.55 57.40Q14.15 57.40 13.03 57.35Q11.90 57.30 10.70 57.15Q9.50 57 8.58 56.73Q7.65 56.45 7.65 56L7.70 55.75Q9.80 56.10 11.90 56.33Q14 56.55 16.10 56.55Q17.70 56.55 19.25 56.35Q20.80 56.15 22.35 55.85Q19.55 56.35 16.50 56.35Q14.35 56.35 12.23 56.15Q10.10 55.95 8 55.60L8.25 55L8.15 54.65Q8 54.70 7.70 54.70Q7.20 54.70 6.55 54.50Q5.90 54.30 5.33 54Q4.75 53.70 4.35 53.30Q3.95 52.90 3.95 52.50Q3.95 52.25 4.35 52.10Q4.75 51.95 5.28 51.88Q5.80 51.80 6.30 51.75Q6.80 51.70 7 51.65L7.05 50.20M12.05 26.50Q12.15 26.80 12.28 27.77Q12.40 28.75 12.53 30.05Q12.65 31.35 12.75 32.85Q12.85 34.35 12.93 35.73Q13 37.10 13.05 38.17Q13.10 39.25 13.10 39.70Q13.10 42.35 12.90 44.98Q12.70 47.60 12.70 50.25Q12.70 51.25 13.38 51.50Q14.05 51.75 14.85 51.75Q17.25 51.75 19.60 51.58Q21.95 51.40 24.20 50.55L24.35 51.15Q25.35 50.65 26.13 49.92Q26.90 49.20 26.90 48Q26.90 46.65 26.05 45.67Q25.20 44.70 23.98 44.10Q22.75 43.50 21.38 43.20Q20 42.90 18.95 42.90Q18.85 42.90 18.55 43.02Q18.25 43.15 18.10 43.20Q18.80 43.25 19.85 43.45Q20.90 43.65 22 43.98Q23.10 44.30 24.10 44.80Q25.10 45.30 25.75 45.90Q24.80 45.15 23.15 44.65Q21.45 44.15 19.68 43.85Q17.90 43.55 16.40 43.38Q14.90 43.20 14.35 43.10L14.10 37.55L14.20 37.55Q15.50 37.55 16.93 37.08Q18.35 36.60 19.55 35.73Q20.75 34.85 21.55 33.63Q22.35 32.40 22.35 30.95Q22.35 29.55 21.75 28.65Q21.15 27.75 20.18 27.23Q19.20 26.70 18 26.52Q16.80 26.35 15.65 26.35Q14.75 26.35 13.85 26.43Q12.95 26.50 12.05 26.50M12.75 52.80Q13.60 52.90 14.38 52.95Q15.15 53 16 53Q16.80 53 17.98 52.93Q19.15 52.85 20.48 52.65Q21.80 52.45 23.13 52.10Q24.45 51.75 25.50 51.20Q26.55 50.65 27.23 49.85Q27.90 49.05 27.90 47.95Q27.90 47.35 27.70 46.80Q27.50 46.25 27.15 45.75Q27.40 46.15 27.58 46.63Q27.75 47.10 27.75 47.60Q27.75 49.30 26.60 50.30Q25.45 51.30 23.83 51.83Q22.20 52.35 20.45 52.50Q18.70 52.65 17.45 52.65Q16.30 52.65 15.13 52.58Q13.95 52.50 12.80 52.40L12.75 52.80M8.25 52Q8.35 50.25 8.35 48.45L8.35 44.90Q8.35 43.90 8.30 42.95Q8.25 42.05 8.15 41.15Q8.15 42.45 8.15 43.75Q8.20 45.10 8.20 46.45Q8.20 47.85 8.15 49.20Q8.10 50.55 7.90 51.90L8.25 52M17.70 37.70Q18.60 37.15 19.43 36.55Q20.25 35.95 20.95 35.15Q20.70 35.15 20.70 34.95Q19.15 36.65 16.85 37.60L17.70 37.70M20.30 42.35Q21.80 42.60 23.50 43.30Q24.95 43.90 26.10 44.70Q25 43.80 23.50 43.15Q21.85 42.35 20.35 42.35L20.30 42.35M8.90 27.60L9.25 26.80L8.45 26.90Q8.45 27 8.47 27.07Q8.50 27.15 8.50 27.25Q8.50 27.35 8.47 27.43Q8.45 27.50 8.45 27.60L8.90 27.60M30.85 50.45Q31.35 49.15 31.35 48L31.35 47.45Q31.35 47.15 31.30 46.90Q31.30 48.50 30.98 49.88Q30.65 51.25 29.60 52.45Q30.40 51.65 30.85 50.45M12.10 42.25Q11.90 43.20 11.85 44.15Q11.80 44.95 11.80 45.80Q11.85 45 11.95 44.20Q12.05 43.25 12.10 42.25M29.50 52.55Q28.55 53.55 27.40 54.15Q26.25 54.75 25 55.25Q26.30 54.80 27.45 54.20Q28.60 53.60 29.50 52.55M27.95 41.35Q28.40 41.75 28.80 42.15L29.50 42.85Q29.20 42.40 28.85 42.05Q28.50 41.65 27.95 41.35M11.80 51.45L11.80 49.95Q11.75 50.35 11.73 50.70Q11.70 51.05 11.70 51.45L11.80 51.45M25.85 46Q26.65 46.65 26.65 47.55L26.65 47.65Q26.50 46.75 25.85 46M25.70 49.70Q25.25 50.15 24.60 50.40L25.70 49.70M11.60 52.65L11.80 52.65L11.80 52.30L11.60 52.30L11.60 52.65M26.30 48.85Q26.25 48.85 26.25 48.75Q26.25 48.65 26.33 48.48Q26.40 48.30 26.50 48.20L26.30 48.85M26.65 47.95Q26.65 48 26.55 48.10L26.65 47.90L26.65 47.95ZM66.25 53.30Q65.85 52.55 64.85 51.77Q63.85 51 62.45 50.25Q61.05 49.50 59.45 48.80Q57.85 48.10 56.30 47.42Q54.75 46.75 53.40 46.15Q52.45 45.75 51.75 45.35Q53.20 46.20 54.80 46.90Q56.65 47.75 58.52 48.65Q60.40 49.55 62.15 50.55Q63.90 51.55 65.35 52.85Q63.90 52.45 61.70 51.52Q59.50 50.60 57.23 49.48Q54.95 48.35 52.83 47.20Q50.70 46.05 49.40 45.20L49.75 44.75Q48.35 43.80 46.90 42.55Q45.45 41.30 44.65 39.80Q44.10 42.15 44 44.30Q43.90 46.45 43.90 48.40Q43.90 49.10 44.25 49.73Q44.60 50.35 44.60 50.90Q44.60 51.65 43.90 51.80Q43.50 50.85 43.30 49.90Q43.10 48.95 43 48Q43 49 43.10 49.95Q43.25 50.95 43.60 51.95L42.85 52.25L43.30 52.85Q43.20 53.40 42.88 53.88Q42.55 54.35 41.90 54.35Q41.10 54.35 40.63 53.48Q40.15 52.60 39.88 51.38Q39.60 50.15 39.52 48.88Q39.45 47.60 39.45 46.75Q39.45 45.05 39.48 43.40Q39.50 41.75 39.60 40.05Q39.35 41.65 39.33 43.30Q39.30 44.95 39.30 46.60Q39.30 48.35 39.50 50.20Q39.70 52.05 40.10 53.75Q39.45 53.15 39.13 52.40Q38.80 51.65 38.63 50.83Q38.45 50 38.38 49.15Q38.30 48.30 38.25 47.50L38.85 47.35Q38.65 46.60 38.60 45.83Q38.55 45.05 38.55 44.25Q38.55 42.50 38.80 40.83Q39.05 39.15 39.05 37.40L39.05 36.80L39 35.55L38.70 35.55Q38.60 37.95 38.42 40.35Q38.25 42.75 38.20 45.20Q38.15 44.70 38.15 44.25L38.15 43.30Q38.15 39.65 38.52 36.13Q38.90 32.60 39.30 29Q39.40 27.85 39.90 26.88Q40.40 25.90 40.70 24.85Q40.90 25 41.20 25.02Q41.50 25.05 41.75 25.07Q42 25.10 42.20 25.25Q42.40 25.40 42.40 25.75Q42.40 25.95 42.35 26.15L42.25 26.55L42.70 26.70Q43.05 26.15 43.60 25.65Q44.15 25.15 44.85 25.15Q45.40 25.15 45.65 25.60Q45.90 26.05 45.90 26.55Q45.90 26.85 45.83 27.80Q45.75 28.75 45.63 30Q45.50 31.25 45.35 32.67Q45.20 34.10 45.08 35.35Q44.95 36.60 44.85 37.48Q44.75 38.35 44.75 38.55L45.95 35.85Q45.80 36.30 45.67 36.60Q45.55 36.90 45.45 37.20Q45.35 37.50 45.17 37.85Q45 38.20 44.70 38.75L44.70 39.45L46.35 35.70Q47.15 35.70 47.92 35.67Q48.70 35.65 49.50 35.50L50 35.40Q48.90 35.40 48.27 35.38Q47.65 35.35 47.10 35.25Q49.10 35.25 51.08 35.17Q53.05 35.10 55.10 35.10Q56.90 35.10 58.67 35Q60.45 34.90 61.88 34.30Q63.30 33.70 64.20 32.45Q65.10 31.20 65.10 28.90Q65.10 26.55 64.50 25.10Q63.90 23.65 62.77 22.83Q61.65 22 59.95 21.73Q58.25 21.45 56.10 21.45Q51.70 21.45 47.25 21.85Q42.80 22.25 38.55 23.35Q38.45 22.95 38.40 22.63Q38.35 22.30 38.15 22.05Q38.15 21.75 38.70 21.50Q39.25 21.25 39.95 21.10Q40.65 20.95 41.27 20.85Q41.90 20.75 42.10 20.70L42.10 20.10Q41.75 20.15 40.90 20.20Q40.05 20.25 39.05 20.25Q37.70 20.25 36.55 20.08Q35.40 19.90 35.40 19.35Q35.40 18.75 36.73 18.20Q38.05 17.65 40.10 17.17Q42.15 16.70 44.60 16.35Q47.05 16 49.33 15.73Q51.60 15.45 53.38 15.32Q55.15 15.20 55.85 15.20Q59.45 15.20 62.35 15.92Q65.25 16.65 67.28 18.30Q69.30 19.95 70.38 22.63Q71.45 25.30 71.45 29.20Q71.45 32.45 70.22 34.73Q69 37 66.95 38.42Q64.90 39.85 62.25 40.52Q59.60 41.20 56.75 41.20Q55.95 41.20 55.17 41.15Q54.40 41.10 53.60 41.05Q54.15 41.40 55.42 42Q56.70 42.60 58.27 43.35Q59.85 44.10 61.58 44.92Q63.30 45.75 64.70 46.52Q66.10 47.30 67 47.98Q67.90 48.65 67.90 49.05L67.65 49.35Q66 48.15 64.25 47.25Q62.50 46.35 60.67 45.55Q58.85 44.75 57 44Q55.25 43.25 53.50 42.25Q55.20 43.25 56.90 44L60.45 45.60Q62.25 46.40 63.98 47.27Q65.70 48.15 67.30 49.35L66.65 49.95Q67 50.20 67.47 50.63Q67.95 51.05 68.38 51.55Q68.80 52.05 69.10 52.58Q69.40 53.10 69.40 53.55Q69.40 54.20 68.80 54.20Q68.20 54.20 67.50 53.85Q66.80 53.50 66.25 53.30M55.35 35.40Q54.35 35.40 53.27 35.42Q52.20 35.45 51.10 35.45Q52.35 35.50 53.70 35.58Q55.05 35.65 56.45 35.65Q58.20 35.65 59.88 35.42Q61.55 35.20 62.85 34.48Q64.15 33.75 64.92 32.48Q65.70 31.20 65.70 29.10Q65.70 28.40 65.60 27.75Q65.50 27.10 65.35 26.40L65.05 26.40Q65.35 27.60 65.35 28.85Q65.35 31.10 64.55 32.40Q63.75 33.70 62.40 34.38Q61.05 35.05 59.23 35.23Q57.40 35.40 55.35 35.40M46.50 36.50Q48.50 36.60 50.58 36.63Q52.65 36.65 54.85 36.65Q56.15 36.65 57.45 36.58Q58.75 36.50 59.95 36.25Q59.40 36.35 58.85 36.35L57.80 36.35Q57.20 36.35 56.35 36.33Q55.50 36.30 54.50 36.25Q53.50 36.20 52.40 36.17Q51.30 36.15 50.25 36.15Q49.10 36.15 48.15 36.20Q47.20 36.25 46.50 36.50M44.60 40.35Q45.60 41.65 46.63 42.77Q47.65 43.90 48.95 44.90Q47.75 44.05 46.52 42.85Q45.30 41.65 44.60 40.35M52 39.95Q53 40.05 54 40.10Q54.95 40.15 55.80 40.20Q55.10 40.15 54.40 40.05Q53.60 39.90 52.80 39.90L52.40 39.90Q52.20 39.90 52 39.95M46.35 36.50Q46.30 36.65 46.08 37.10Q45.85 37.55 45.63 38.08Q45.40 38.60 45.20 39.05Q45 39.50 45 39.65L45.10 39.55L46.35 36.65L46.35 36.50M51.55 40.90L51.40 40.90Q52.10 41.45 53 41.95L51.55 40.90M45.40 40.05Q45.50 40.30 45.73 40.63Q45.95 40.95 46.30 41.30Q46 40.95 45.80 40.58Q45.60 40.20 45.50 39.85L45.40 40.05M51.30 45.10Q51.45 45.20 51.55 45.25L51.30 45.10ZM76.75 52.25Q76.95 50.85 77.13 48.98Q77.30 47.10 77.45 45.20Q77.60 43.30 77.75 41.48Q77.90 39.65 78.05 38.30Q77.80 39.65 77.60 41.40Q77.40 43.15 77.20 45Q77 46.85 76.80 48.67Q76.60 50.50 76.45 51.95Q75.70 51.45 75.70 50.60Q75.70 49.60 75.75 48.92Q75.80 48.25 75.90 47.35L76.45 46.85Q76.40 46.60 76.40 46.40L76.40 45.90Q76.40 44.75 76.65 43.27Q76.90 41.80 77.23 40.27Q77.55 38.75 77.80 37.33Q78.05 35.90 78.05 34.85L77.45 34.70Q77.35 35.90 77.15 37.42Q76.95 38.95 76.73 40.58Q76.50 42.20 76.30 43.80Q76.20 44.65 76.10 45.40Q76.20 44 76.35 42.40Q76.60 40.10 76.88 37.83Q77.15 35.55 77.40 33.35Q77.65 31.15 77.90 29.30Q77.90 28.55 78.28 27.68Q78.65 26.80 78.80 25.85Q79.10 25.95 79.30 25.95L79.65 25.95Q80.15 25.95 80.30 26.18Q80.45 26.40 80.45 26.80L80.45 27.05L80.90 27.20Q81.30 26.45 81.85 26Q82.40 25.55 82.95 25.55Q84.15 25.55 84.15 28.10Q84.15 29.45 83.88 30.98Q83.60 32.50 83.60 33.95L83.60 34.60Q83.60 36.20 83.25 38.08Q82.90 39.95 82.48 41.88Q82.05 43.80 81.70 45.60Q81.35 47.40 81.35 48.90Q81.35 49.25 81.40 49.65Q81.45 50.05 81.45 50.40Q81.45 51.15 81.17 51.33Q80.90 51.50 80.50 51.50Q80.50 50.85 80.45 49.90Q80.40 48.95 80.40 48.20Q80.30 48.75 80.30 49.70Q80.30 50.65 80.20 51.50L79.45 51.50L79.45 52.10Q79 52.90 78.25 52.90Q77.90 52.90 77.45 52.70Q77 52.50 76.75 52.25M87.05 13.85Q86.20 14.35 85.50 15.15Q84.80 15.95 84.05 16.70Q84.50 16.40 84.85 16.05Q85.20 15.70 85.58 15.35Q85.95 15 86.38 14.65Q86.80 14.30 87.35 14Q87.50 14.20 87.63 14.35Q87.75 14.50 87.75 14.65L86.60 15.80Q86.60 15.70 86.43 15.60Q86.25 15.50 86.15 15.50Q86 16 85.65 16.30Q85.30 16.60 84.95 16.85Q84.60 17.10 84.25 17.40Q83.90 17.70 83.75 18.20L83.75 18.30Q83.75 18.35 83.90 18.35L86.40 16L85.45 16.95Q84.75 17.65 83.98 18.38Q83.20 19.10 82.53 19.65Q81.85 20.20 81.70 20.20L81.65 20.15Q81.30 20.05 80.92 20.05Q80.55 20.05 80.15 20Q80.15 19.60 80.03 19.15Q79.90 18.70 79.90 18.45Q79.90 18.20 80.15 18.20Q80.15 18.05 79.98 17.73Q79.80 17.40 79.60 16.98Q79.40 16.55 79.23 16.07Q79.05 15.60 79.05 15.10Q79.05 14.60 79.48 14.13Q79.90 13.65 80.48 13.30Q81.05 12.95 81.60 12.70Q82.15 12.45 82.40 12.35Q82.60 12.35 82.55 12.13Q82.50 11.90 82.70 11.90L83.60 12.20Q83.50 12.45 82.98 13.02Q82.45 13.60 82.20 13.85Q82.55 13.60 83.03 13.10Q83.50 12.60 83.75 12.35Q84 12.45 84.20 12.55Q84.40 12.65 84.50 12.65L84.65 12.50Q85 12.50 85.43 12.65Q85.85 12.80 86.20 13Q86.55 13.20 86.80 13.45Q87.05 13.70 87.05 13.85M76 46.60Q76.05 46.05 76.10 45.50Q76.05 46.10 76 46.60ZM117.05 46.70L116.75 46.55Q114.65 46 112.30 45.85Q109.95 45.70 107.50 45.20Q109.90 45.70 112.20 45.98Q114.50 46.25 116.75 47Q116.05 47.45 115.25 47.45Q114.30 47.35 113.38 47.15Q112.45 46.95 111.40 46.85Q111.40 46.55 111.55 46.40Q110.10 46.40 108.67 46.10Q107.25 45.80 105.90 45.42Q104.55 45.05 103.28 44.73Q102 44.40 100.90 44.40Q100.90 44.55 100.85 44.55Q102.15 44.80 103.30 45.25Q104.45 45.70 105.90 45.95Q107.30 46.30 108.63 46.45Q109.95 46.60 111.25 46.85Q109.15 46.65 106.97 46.25Q104.80 45.85 102.70 45.35L100.35 44.75Q99.10 47.95 97.83 51.02Q96.55 54.10 95.35 57.25Q95.25 57.05 95.03 57.02Q94.80 57 94.58 57Q94.35 57 94.15 56.88Q93.95 56.75 93.95 56.35Q93.95 55.95 94.15 55.23Q94.35 54.50 94.90 53.30Q94.80 53.20 94.58 53.18Q94.35 53.15 94.25 53.15Q93.25 55.25 92.33 56.38Q91.40 57.50 90.85 57.50Q90.25 57.50 90.25 56.35Q90.25 55.40 90.60 53.93Q90.95 52.45 91.47 50.75Q92 49.05 92.65 47.23Q93.30 45.40 93.90 43.65Q93.35 43.30 92.72 43.15Q92.10 43 91.35 42.90Q91.50 42.70 91.50 42.40Q91.50 42.10 91.55 41.80Q91.60 41.50 91.75 41.30Q91.90 41.10 92.30 41.10Q92.40 41.10 92.90 41.20L92.90 40.75Q92.10 40.35 91.67 39.80Q91.25 39.25 91.25 38.70Q91.25 37.50 93.55 37.50Q94.20 37.50 94.88 37.58Q95.55 37.65 96.25 37.75L98.55 32.50Q99.30 30.80 100.17 29Q101.05 27.20 102.25 25.45Q103.45 23.70 104.97 22.13Q106.50 20.55 108.50 19.30L109.25 19Q110.65 19.35 111.53 19.58Q112.40 19.80 112.95 19.90Q113.45 20.10 113.75 20.15L113.70 20.15L113.75 20.30Q113.75 20.35 113.70 20.40L114.30 21.45Q117.55 26.90 119.80 32.75Q122.05 38.60 123.65 44.25Q124.05 45.50 124.63 46.92Q125.20 48.35 125.72 49.63Q126.25 50.90 126.60 51.93Q126.95 52.95 126.95 53.40Q126.95 53.75 126.80 53.83Q126.65 53.90 126.40 53.90Q125.10 50.65 123.95 47.50Q122.80 44.40 121.70 41.25Q122.70 44.40 123.80 47.50Q124.95 50.65 126.10 53.90L125.75 53.90Q125.45 53.90 125.35 54.20Q125.45 54.30 125.60 54.73Q125.75 55.15 125.90 55.63Q126.05 56.10 126.15 56.60Q126.25 57.10 126.25 57.35Q126.25 58.45 125.60 58.45Q125.25 58.45 125.05 58.30Q124.85 58.15 124.60 57.90L124.10 57.40Q123.80 57.10 123.35 56.80L118.55 43Q119.60 46.25 120.63 49.50Q121.65 52.75 122.75 55.90Q121.95 54.95 121.28 53.60Q120.60 52.25 120.03 50.75Q119.45 49.25 118.95 47.67Q118.45 46.10 117.95 44.70Q117.95 44.80 117.97 44.88Q118 44.95 118 45.05Q118 45.85 117.50 46.25L117.05 46.70M116.75 41.50Q116.85 41.50 117.05 41.42Q117.25 41.35 117.35 41.35Q115.70 37.20 114.08 33.30Q112.45 29.40 110.50 25.80L110.20 26.10L110.95 27.45Q112.70 30.65 114.10 34.05Q115.50 37.45 116.75 41.05Q115.30 37.15 113.63 33.27Q111.95 29.40 110.05 26.25L109.85 26.35Q108.15 28.10 106.67 30.55Q105.20 33 103.90 35.55L102.60 38.70L103.45 38.90Q104.20 39.10 104.92 39.33Q105.65 39.55 106.20 39.80Q107.30 40.35 109.10 40.65Q110.90 40.95 112.63 41.23Q114.35 41.50 115.63 41.83Q116.90 42.15 116.90 42.75L110.80 42.05Q111.35 42.15 112.15 42.27Q112.95 42.40 113.78 42.55Q114.60 42.70 115.40 42.83Q116.20 42.95 116.75 43.05Q116.75 43.20 116.72 43.33Q116.70 43.45 116.70 43.55Q116.70 43.65 116.83 43.67Q116.95 43.70 117.13 43.73Q117.30 43.75 117.45 43.85Q117.60 43.90 117.75 44.15L116.75 41.50M105.90 30.80Q106 30.80 105.97 30.93Q105.95 31.05 106 31.05Q106.10 31.05 106.60 30.35Q107.10 29.65 107.75 28.75Q108.40 27.85 109 27.05Q109.60 26.25 109.85 26L109.60 25.65Q108.55 26.65 107.65 28Q106.75 29.35 105.90 30.80M110.95 25.40Q112.55 28.10 113.90 31.05Q115.20 33.95 116.35 36.85Q115.40 33.95 114.05 31.05Q112.65 28.10 111 25.40L110.95 25.40M118.60 32.90Q120.15 36.90 121.65 41.05Q120.25 37 118.70 33.05Q117.25 29.15 115.35 25.20Q117.15 29 118.60 32.90M111.25 24.30Q111.90 24.45 112.15 24.60Q112.40 24.75 112.50 24.75L112.55 24.60Q112.60 24.60 112.35 24.55Q112.10 24.50 111.95 24.45L112.05 24.25L111.45 24.05L111.25 24.30M108.80 23.80L109.20 24.85L109.15 23.80Q109.05 23.80 108.92 23.75Q108.80 23.70 108.70 23.70L108.80 23.80M110.10 25.25L109.75 25.50L110.05 25.90L110.35 25.60L110.10 25.25M110.80 25.15L110.85 25.15L110.60 24.80L110.60 24.85L110.80 25.15ZM160.15 20.25Q160.55 20.25 160.63 20.73Q160.70 21.20 160.70 21.65L160.65 22Q160.60 22.30 160.50 22.77Q160.40 23.25 160.28 23.80Q160.15 24.35 159.95 24.80Q159.25 27 158.82 29.15Q158.40 31.30 158.15 33.48Q157.90 35.65 157.75 37.85Q157.60 40.05 157.45 42.30Q157.65 40.25 157.82 38Q158 35.75 158.30 33.48Q158.60 31.20 159.07 29.02Q159.55 26.85 160.40 24.95Q159.65 29.75 159.18 34.50Q158.70 39.25 158.40 44.10L157.80 44.40Q157.80 47.45 157.20 50.23Q156.60 53 155.85 55.95Q155.60 55.95 155.28 55.98Q154.95 56 154.65 56Q154.40 56 153.95 55.85Q153.50 55.70 153 55.48Q152.50 55.25 151.97 54.98Q151.45 54.70 151.10 54.45Q148.95 53.05 147.25 50.98Q145.55 48.90 144.20 46.40Q142.85 43.90 141.80 41.13Q140.75 38.35 139.82 35.55Q138.90 32.75 138.05 30.07Q137.20 27.40 136.35 25.15L136.05 25.40Q136.90 27.90 137.72 30.82Q138.55 33.75 139.47 36.78Q140.40 39.80 141.57 42.75Q142.75 45.70 144.32 48.25Q145.90 50.80 148 52.77Q150.10 54.75 152.90 55.85Q150.50 55.20 148.63 53.63Q146.75 52.05 145.22 49.90Q143.70 47.75 142.53 45.23Q141.35 42.70 140.40 40.10Q139.45 37.50 138.70 35Q137.95 32.50 137.30 30.45Q137.30 32.55 137.53 34.55Q137.75 36.55 137.75 38.60Q137.75 42.05 137.95 45.52Q138.15 49 138.35 52.45L137.25 52.65Q136.85 52.65 136.65 51.98Q136.45 51.30 136.35 50.45Q136.25 49.60 136.22 48.83Q136.20 48.05 136.20 47.85L135.60 47.85Q135.60 48.25 135.57 49.42Q135.55 50.60 135.40 51.85Q135.25 53.10 134.93 54.10Q134.60 55.10 134 55.10Q133.60 55.10 133.25 53.77Q132.90 52.45 132.55 50.27Q132.20 48.10 131.90 45.33Q131.60 42.55 131.40 39.70Q131.20 36.85 131.07 34.15Q130.95 31.45 130.95 29.40Q130.95 26.75 131.32 24.15Q131.70 21.55 132.55 19L138.05 17.95Q138.30 18.30 138.50 18.58Q138.70 18.85 138.95 19.15Q140.40 21.25 141.45 23.73Q142.50 26.20 143.35 28.88Q144.20 31.55 144.97 34.27Q145.75 37 146.70 39.58Q147.65 42.15 148.90 44.45Q150.15 46.75 151.95 48.55Q152.15 47.10 152.32 44.70Q152.50 42.30 152.72 39.55Q152.95 36.80 153.20 34.02Q153.45 31.25 153.82 28.98Q154.20 26.70 154.72 25.27Q155.25 23.85 155.95 23.85L156.25 24.05Q155.20 27.15 154.82 30.30Q154.45 33.45 154.28 36.65Q154.10 39.85 153.88 43.02Q153.65 46.20 152.90 49.30L153.20 49.45Q153.25 49 153.30 48.52Q153.35 48.05 153.45 47.60Q153.85 44.70 154.03 41.77Q154.20 38.85 154.43 35.90Q154.65 32.95 155.07 30.05Q155.50 27.15 156.40 24.35L156.90 24.70Q157.20 24.50 157.45 23.77Q157.70 23.05 158.05 22.27Q158.40 21.50 158.90 20.88Q159.40 20.25 160.15 20.25M155.05 55.55Q155.60 53.75 156.05 51.95Q156.50 50.15 156.75 48.25Q156.45 50.05 155.97 51.77Q155.50 53.50 155.05 55.25Q152.05 54.20 150.18 52.95Q148.30 51.70 147.03 50.10Q145.75 48.50 144.75 46.50Q143.95 44.95 143 43.05Q143.60 44.30 144.05 45.35Q144.75 46.80 145.43 48.02Q146.10 49.25 146.85 50.23Q147.60 51.20 148.70 52.08Q149.80 52.95 151.32 53.77Q152.85 54.60 155.05 55.55M152.75 50.55Q152.25 50.20 151.47 49.20Q150.70 48.20 149.93 47.13Q149.15 46.05 148.55 45.20Q147.95 44.35 147.85 44.30Q148.65 46.15 149.93 47.67Q151.20 49.20 152.60 50.55L152.75 50.55ZM188.75 50.20L188.75 48.65L189.40 48.25Q189.25 47.40 189.20 46.58Q189.15 45.75 189.15 44.90Q189.15 43.95 189.17 43.02Q189.20 42.10 189.20 41.10Q189.20 40.05 189.10 39Q189 37.95 188.75 36.90L188.45 36.90Q188.50 39.55 188.63 42.10Q188.75 44.65 188.75 47.30Q188.50 43.50 188.17 39.70Q187.85 35.90 187.85 32Q187.85 30.85 187.97 29.68Q188.10 28.50 188.25 27.35L184.95 28.20L185 28.05Q184.90 27.90 184.72 27.50Q184.55 27.10 184.55 27Q184.55 26.75 185.07 26.48Q185.60 26.20 186.27 26Q186.95 25.80 187.57 25.65Q188.20 25.50 188.45 25.45L188.30 24.85Q187.90 24.95 186.67 25.07Q185.45 25.20 184.20 25.20Q183.20 25.20 182.45 25.05Q181.70 24.90 181.70 24.40Q181.70 23.85 182.70 23.30Q183.70 22.75 185.27 22.27Q186.85 21.80 188.75 21.40Q190.65 21 192.40 20.70Q194.15 20.40 195.55 20.25Q196.95 20.10 197.50 20.10Q200.05 20.10 202.38 20.73Q204.70 21.35 206.45 22.67Q208.20 24 209.22 26.05Q210.25 28.10 210.25 30.90Q210.25 32.05 209.90 33.27Q209.55 34.50 208.82 35.63Q208.10 36.75 206.97 37.65Q205.85 38.55 204.30 38.95Q206.90 39.30 208.77 40.15Q210.65 41 211.82 42.20Q213 43.40 213.55 44.90Q214.10 46.40 214.10 48.10Q214.10 50.30 213.22 51.85Q212.35 53.40 210.90 54.45Q209.45 55.50 207.60 56.08Q205.75 56.65 203.75 56.95Q201.75 57.25 199.80 57.33Q197.85 57.40 196.25 57.40Q195.85 57.40 194.72 57.35Q193.60 57.30 192.40 57.15Q191.20 57 190.27 56.73Q189.35 56.45 189.35 56L189.40 55.75Q191.50 56.10 193.60 56.33Q195.70 56.55 197.80 56.55Q199.40 56.55 200.95 56.35Q202.50 56.15 204.05 55.85Q201.25 56.35 198.20 56.35Q196.05 56.35 193.92 56.15Q191.80 55.95 189.70 55.60L189.95 55L189.85 54.65Q189.70 54.70 189.40 54.70Q188.90 54.70 188.25 54.50Q187.60 54.30 187.02 54Q186.45 53.70 186.05 53.30Q185.65 52.90 185.65 52.50Q185.65 52.25 186.05 52.10Q186.45 51.95 186.97 51.88Q187.50 51.80 188 51.75Q188.50 51.70 188.70 51.65L188.75 50.20M193.75 26.50Q193.85 26.80 193.97 27.77Q194.10 28.75 194.22 30.05Q194.35 31.35 194.45 32.85Q194.55 34.35 194.63 35.73Q194.70 37.10 194.75 38.17Q194.80 39.25 194.80 39.70Q194.80 42.35 194.60 44.98Q194.40 47.60 194.40 50.25Q194.40 51.25 195.07 51.50Q195.75 51.75 196.55 51.75Q198.95 51.75 201.30 51.58Q203.65 51.40 205.90 50.55L206.05 51.15Q207.05 50.65 207.82 49.92Q208.60 49.20 208.60 48Q208.60 46.65 207.75 45.67Q206.90 44.70 205.67 44.10Q204.45 43.50 203.07 43.20Q201.70 42.90 200.65 42.90Q200.55 42.90 200.25 43.02Q199.95 43.15 199.80 43.20Q200.50 43.25 201.55 43.45Q202.60 43.65 203.70 43.98Q204.80 44.30 205.80 44.80Q206.80 45.30 207.45 45.90Q206.50 45.15 204.85 44.65Q203.15 44.15 201.38 43.85Q199.60 43.55 198.10 43.38Q196.60 43.20 196.05 43.10L195.80 37.55L195.90 37.55Q197.20 37.55 198.63 37.08Q200.05 36.60 201.25 35.73Q202.45 34.85 203.25 33.63Q204.05 32.40 204.05 30.95Q204.05 29.55 203.45 28.65Q202.85 27.75 201.88 27.23Q200.90 26.70 199.70 26.52Q198.50 26.35 197.35 26.35Q196.45 26.35 195.55 26.43Q194.65 26.50 193.75 26.50M194.45 52.80Q195.30 52.90 196.07 52.95Q196.85 53 197.70 53Q198.50 53 199.67 52.93Q200.85 52.85 202.17 52.65Q203.50 52.45 204.82 52.10Q206.15 51.75 207.20 51.20Q208.25 50.65 208.92 49.85Q209.60 49.05 209.60 47.95Q209.60 47.35 209.40 46.80Q209.20 46.25 208.85 45.75Q209.10 46.15 209.27 46.63Q209.45 47.10 209.45 47.60Q209.45 49.30 208.30 50.30Q207.15 51.30 205.52 51.83Q203.90 52.35 202.15 52.50Q200.40 52.65 199.15 52.65Q198 52.65 196.82 52.58Q195.65 52.50 194.50 52.40L194.45 52.80M189.95 52Q190.05 50.25 190.05 48.45L190.05 44.90Q190.05 43.90 190 42.95Q189.95 42.05 189.85 41.15Q189.85 42.45 189.85 43.75Q189.90 45.10 189.90 46.45Q189.90 47.85 189.85 49.20Q189.80 50.55 189.60 51.90L189.95 52M199.40 37.70Q200.30 37.15 201.13 36.55Q201.95 35.95 202.65 35.15Q202.40 35.15 202.40 34.95Q200.85 36.65 198.55 37.60L199.40 37.70M202 42.35Q203.50 42.60 205.20 43.30Q206.65 43.90 207.80 44.70Q206.70 43.80 205.20 43.15Q203.55 42.35 202.05 42.35L202 42.35M190.60 27.60L190.95 26.80L190.15 26.90Q190.15 27 190.17 27.07Q190.20 27.15 190.20 27.25Q190.20 27.35 190.17 27.43Q190.15 27.50 190.15 27.60L190.60 27.60M212.55 50.45Q213.05 49.15 213.05 48L213.05 47.45Q213.05 47.15 213 46.90Q213 48.50 212.67 49.88Q212.35 51.25 211.30 52.45Q212.10 51.65 212.55 50.45M193.80 42.25Q193.60 43.20 193.55 44.15Q193.50 44.95 193.50 45.80Q193.55 45 193.65 44.20Q193.75 43.25 193.80 42.25M211.20 52.55Q210.25 53.55 209.10 54.15Q207.95 54.75 206.70 55.25Q208 54.80 209.15 54.20Q210.30 53.60 211.20 52.55M209.65 41.35Q210.10 41.75 210.50 42.15L211.20 42.85Q210.90 42.40 210.55 42.05Q210.20 41.65 209.65 41.35M193.50 51.45L193.50 49.95Q193.45 50.35 193.42 50.70Q193.40 51.05 193.40 51.45L193.50 51.45M207.55 46Q208.35 46.65 208.35 47.55L208.35 47.65Q208.20 46.75 207.55 46M207.40 49.70Q206.95 50.15 206.30 50.40L207.40 49.70M193.30 52.65L193.50 52.65L193.50 52.30L193.30 52.30L193.30 52.65M208 48.85Q207.95 48.85 207.95 48.75Q207.95 48.65 208.02 48.48Q208.10 48.30 208.20 48.20L208 48.85M208.35 47.95Q208.35 48 208.25 48.10L208.35 47.90L208.35 47.95ZM243.40 46.70L243.10 46.55Q241 46 238.65 45.85Q236.30 45.70 233.85 45.20Q236.25 45.70 238.55 45.98Q240.85 46.25 243.10 47Q242.40 47.45 241.60 47.45Q240.65 47.35 239.72 47.15Q238.80 46.95 237.75 46.85Q237.75 46.55 237.90 46.40Q236.45 46.40 235.03 46.10Q233.60 45.80 232.25 45.42Q230.90 45.05 229.63 44.73Q228.35 44.40 227.25 44.40Q227.25 44.55 227.20 44.55Q228.50 44.80 229.65 45.25Q230.80 45.70 232.25 45.95Q233.65 46.30 234.97 46.45Q236.30 46.60 237.60 46.85Q235.50 46.65 233.32 46.25Q231.15 45.85 229.05 45.35L226.70 44.75Q225.45 47.95 224.17 51.02Q222.90 54.10 221.70 57.25Q221.60 57.05 221.38 57.02Q221.15 57 220.92 57Q220.70 57 220.50 56.88Q220.30 56.75 220.30 56.35Q220.30 55.95 220.50 55.23Q220.70 54.50 221.25 53.30Q221.15 53.20 220.92 53.18Q220.70 53.15 220.60 53.15Q219.60 55.25 218.67 56.38Q217.75 57.50 217.20 57.50Q216.60 57.50 216.60 56.35Q216.60 55.40 216.95 53.93Q217.30 52.45 217.82 50.75Q218.35 49.05 219 47.23Q219.65 45.40 220.25 43.65Q219.70 43.30 219.07 43.15Q218.45 43 217.70 42.90Q217.85 42.70 217.85 42.40Q217.85 42.10 217.90 41.80Q217.95 41.50 218.10 41.30Q218.25 41.10 218.65 41.10Q218.75 41.10 219.25 41.20L219.25 40.75Q218.45 40.35 218.03 39.80Q217.60 39.25 217.60 38.70Q217.60 37.50 219.90 37.50Q220.55 37.50 221.22 37.58Q221.90 37.65 222.60 37.75L224.90 32.50Q225.65 30.80 226.53 29Q227.40 27.20 228.60 25.45Q229.80 23.70 231.32 22.13Q232.85 20.55 234.85 19.30L235.60 19Q237 19.35 237.88 19.58Q238.75 19.80 239.30 19.90Q239.80 20.10 240.10 20.15L240.05 20.15L240.10 20.30Q240.10 20.35 240.05 20.40L240.65 21.45Q243.90 26.90 246.15 32.75Q248.40 38.60 250 44.25Q250.40 45.50 250.97 46.92Q251.55 48.35 252.07 49.63Q252.60 50.90 252.95 51.93Q253.30 52.95 253.30 53.40Q253.30 53.75 253.15 53.83Q253 53.90 252.75 53.90Q251.45 50.65 250.30 47.50Q249.15 44.40 248.05 41.25Q249.05 44.40 250.15 47.50Q251.30 50.65 252.45 53.90L252.10 53.90Q251.80 53.90 251.70 54.20Q251.80 54.30 251.95 54.73Q252.10 55.15 252.25 55.63Q252.40 56.10 252.50 56.60Q252.60 57.10 252.60 57.35Q252.60 58.45 251.95 58.45Q251.60 58.45 251.40 58.30Q251.20 58.15 250.95 57.90L250.45 57.40Q250.15 57.10 249.70 56.80L244.90 43Q245.95 46.25 246.97 49.50Q248 52.75 249.10 55.90Q248.30 54.95 247.63 53.60Q246.95 52.25 246.38 50.75Q245.80 49.25 245.30 47.67Q244.80 46.10 244.30 44.70Q244.30 44.80 244.32 44.88Q244.35 44.95 244.35 45.05Q244.35 45.85 243.85 46.25L243.40 46.70M243.10 41.50Q243.20 41.50 243.40 41.42Q243.60 41.35 243.70 41.35Q242.05 37.20 240.43 33.30Q238.80 29.40 236.85 25.80L236.55 26.10L237.30 27.45Q239.05 30.65 240.45 34.05Q241.85 37.45 243.10 41.05Q241.65 37.15 239.97 33.27Q238.30 29.40 236.40 26.25L236.20 26.35Q234.50 28.10 233.03 30.55Q231.55 33 230.25 35.55L228.95 38.70L229.80 38.90Q230.55 39.10 231.28 39.33Q232 39.55 232.55 39.80Q233.65 40.35 235.45 40.65Q237.25 40.95 238.97 41.23Q240.70 41.50 241.97 41.83Q243.25 42.15 243.25 42.75L237.15 42.05Q237.70 42.15 238.50 42.27Q239.30 42.40 240.13 42.55Q240.95 42.70 241.75 42.83Q242.55 42.95 243.10 43.05Q243.10 43.20 243.07 43.33Q243.05 43.45 243.05 43.55Q243.05 43.65 243.18 43.67Q243.30 43.70 243.47 43.73Q243.65 43.75 243.80 43.85Q243.95 43.90 244.10 44.15L243.10 41.50M232.25 30.80Q232.35 30.80 232.32 30.93Q232.30 31.05 232.35 31.05Q232.45 31.05 232.95 30.35Q233.45 29.65 234.10 28.75Q234.75 27.85 235.35 27.05Q235.95 26.25 236.20 26L235.95 25.65Q234.90 26.65 234 28Q233.10 29.35 232.25 30.80M237.30 25.40Q238.90 28.10 240.25 31.05Q241.55 33.95 242.70 36.85Q241.75 33.95 240.40 31.05Q239 28.10 237.35 25.40L237.30 25.40M244.95 32.90Q246.50 36.90 248 41.05Q246.60 37 245.05 33.05Q243.60 29.15 241.70 25.20Q243.50 29 244.95 32.90M237.60 24.30Q238.25 24.45 238.50 24.60Q238.75 24.75 238.85 24.75L238.90 24.60Q238.95 24.60 238.70 24.55Q238.45 24.50 238.30 24.45L238.40 24.25L237.80 24.05L237.60 24.30M235.15 23.80L235.55 24.85L235.50 23.80Q235.40 23.80 235.28 23.75Q235.15 23.70 235.05 23.70L235.15 23.80M236.45 25.25L236.10 25.50L236.40 25.90L236.70 25.60L236.45 25.25M237.15 25.15L237.20 25.15L236.95 24.80L236.95 24.85L237.15 25.15ZM286.65 53.30Q286.25 52.55 285.25 51.77Q284.25 51 282.85 50.25Q281.45 49.50 279.85 48.80Q278.25 48.10 276.70 47.42Q275.15 46.75 273.80 46.15Q272.85 45.75 272.15 45.35Q273.60 46.20 275.20 46.90Q277.05 47.75 278.93 48.65Q280.80 49.55 282.55 50.55Q284.30 51.55 285.75 52.85Q284.30 52.45 282.10 51.52Q279.90 50.60 277.63 49.48Q275.35 48.35 273.23 47.20Q271.10 46.05 269.80 45.20L270.15 44.75Q268.75 43.80 267.30 42.55Q265.85 41.30 265.05 39.80Q264.50 42.15 264.40 44.30Q264.30 46.45 264.30 48.40Q264.30 49.10 264.65 49.73Q265 50.35 265 50.90Q265 51.65 264.30 51.80Q263.90 50.85 263.70 49.90Q263.50 48.95 263.40 48Q263.40 49 263.50 49.95Q263.65 50.95 264 51.95L263.25 52.25L263.70 52.85Q263.60 53.40 263.28 53.88Q262.95 54.35 262.30 54.35Q261.50 54.35 261.03 53.48Q260.55 52.60 260.28 51.38Q260 50.15 259.93 48.88Q259.85 47.60 259.85 46.75Q259.85 45.05 259.88 43.40Q259.90 41.75 260 40.05Q259.75 41.65 259.73 43.30Q259.70 44.95 259.70 46.60Q259.70 48.35 259.90 50.20Q260.10 52.05 260.50 53.75Q259.85 53.15 259.53 52.40Q259.20 51.65 259.03 50.83Q258.85 50 258.78 49.15Q258.70 48.30 258.65 47.50L259.25 47.35Q259.05 46.60 259 45.83Q258.95 45.05 258.95 44.25Q258.95 42.50 259.20 40.83Q259.45 39.15 259.45 37.40L259.45 36.80L259.40 35.55L259.10 35.55Q259 37.95 258.82 40.35Q258.65 42.75 258.60 45.20Q258.55 44.70 258.55 44.25L258.55 43.30Q258.55 39.65 258.93 36.13Q259.30 32.60 259.70 29Q259.80 27.85 260.30 26.88Q260.80 25.90 261.10 24.85Q261.30 25 261.60 25.02Q261.90 25.05 262.15 25.07Q262.40 25.10 262.60 25.25Q262.80 25.40 262.80 25.75Q262.80 25.95 262.75 26.15L262.65 26.55L263.10 26.70Q263.45 26.15 264 25.65Q264.55 25.15 265.25 25.15Q265.80 25.15 266.05 25.60Q266.30 26.05 266.30 26.55Q266.30 26.85 266.23 27.80Q266.15 28.75 266.03 30Q265.90 31.25 265.75 32.67Q265.60 34.10 265.48 35.35Q265.35 36.60 265.25 37.48Q265.15 38.35 265.15 38.55L266.35 35.85Q266.20 36.30 266.07 36.60Q265.95 36.90 265.85 37.20Q265.75 37.50 265.57 37.85Q265.40 38.20 265.10 38.75L265.10 39.45L266.75 35.70Q267.55 35.70 268.32 35.67Q269.10 35.65 269.90 35.50L270.40 35.40Q269.30 35.40 268.68 35.38Q268.05 35.35 267.50 35.25Q269.50 35.25 271.48 35.17Q273.45 35.10 275.50 35.10Q277.30 35.10 279.07 35Q280.85 34.90 282.28 34.30Q283.70 33.70 284.60 32.45Q285.50 31.20 285.50 28.90Q285.50 26.55 284.90 25.10Q284.30 23.65 283.18 22.83Q282.05 22 280.35 21.73Q278.65 21.45 276.50 21.45Q272.10 21.45 267.65 21.85Q263.20 22.25 258.95 23.35Q258.85 22.95 258.80 22.63Q258.75 22.30 258.55 22.05Q258.55 21.75 259.10 21.50Q259.65 21.25 260.35 21.10Q261.05 20.95 261.68 20.85Q262.30 20.75 262.50 20.70L262.50 20.10Q262.15 20.15 261.30 20.20Q260.45 20.25 259.45 20.25Q258.10 20.25 256.95 20.08Q255.80 19.90 255.80 19.35Q255.80 18.75 257.13 18.20Q258.45 17.65 260.50 17.17Q262.55 16.70 265 16.35Q267.45 16 269.73 15.73Q272 15.45 273.78 15.32Q275.55 15.20 276.25 15.20Q279.85 15.20 282.75 15.92Q285.65 16.65 287.68 18.30Q289.70 19.95 290.78 22.63Q291.85 25.30 291.85 29.20Q291.85 32.45 290.63 34.73Q289.40 37 287.35 38.42Q285.30 39.85 282.65 40.52Q280 41.20 277.15 41.20Q276.35 41.20 275.57 41.15Q274.80 41.10 274 41.05Q274.55 41.40 275.82 42Q277.10 42.60 278.68 43.35Q280.25 44.10 281.98 44.92Q283.70 45.75 285.10 46.52Q286.50 47.30 287.40 47.98Q288.30 48.65 288.30 49.05L288.05 49.35Q286.40 48.15 284.65 47.25Q282.90 46.35 281.07 45.55Q279.25 44.75 277.40 44Q275.65 43.25 273.90 42.25Q275.60 43.25 277.30 44L280.85 45.60Q282.65 46.40 284.38 47.27Q286.10 48.15 287.70 49.35L287.05 49.95Q287.40 50.20 287.88 50.63Q288.35 51.05 288.78 51.55Q289.20 52.05 289.50 52.58Q289.80 53.10 289.80 53.55Q289.80 54.20 289.20 54.20Q288.60 54.20 287.90 53.85Q287.20 53.50 286.65 53.30M275.75 35.40Q274.75 35.40 273.68 35.42Q272.60 35.45 271.50 35.45Q272.75 35.50 274.10 35.58Q275.45 35.65 276.85 35.65Q278.60 35.65 280.28 35.42Q281.95 35.20 283.25 34.48Q284.55 33.75 285.32 32.48Q286.10 31.20 286.10 29.10Q286.10 28.40 286 27.75Q285.90 27.10 285.75 26.40L285.45 26.40Q285.75 27.60 285.75 28.85Q285.75 31.10 284.95 32.40Q284.15 33.70 282.80 34.38Q281.45 35.05 279.63 35.23Q277.80 35.40 275.75 35.40M266.90 36.50Q268.90 36.60 270.98 36.63Q273.05 36.65 275.25 36.65Q276.55 36.65 277.85 36.58Q279.15 36.50 280.35 36.25Q279.80 36.35 279.25 36.35L278.20 36.35Q277.60 36.35 276.75 36.33Q275.90 36.30 274.90 36.25Q273.90 36.20 272.80 36.17Q271.70 36.15 270.65 36.15Q269.50 36.15 268.55 36.20Q267.60 36.25 266.90 36.50M265 40.35Q266 41.65 267.03 42.77Q268.05 43.90 269.35 44.90Q268.15 44.05 266.93 42.85Q265.70 41.65 265 40.35M272.40 39.95Q273.40 40.05 274.40 40.10Q275.35 40.15 276.20 40.20Q275.50 40.15 274.80 40.05Q274 39.90 273.20 39.90L272.80 39.90Q272.60 39.90 272.40 39.95M266.75 36.50Q266.70 36.65 266.48 37.10Q266.25 37.55 266.03 38.08Q265.80 38.60 265.60 39.05Q265.40 39.50 265.40 39.65L265.50 39.55L266.75 36.65L266.75 36.50M271.95 40.90L271.80 40.90Q272.50 41.45 273.40 41.95L271.95 40.90M265.80 40.05Q265.90 40.30 266.13 40.63Q266.35 40.95 266.70 41.30Q266.40 40.95 266.20 40.58Q266 40.20 265.90 39.85L265.80 40.05M271.70 45.10Q271.85 45.20 271.95 45.25L271.70 45.10ZM325.55 20.25Q325.95 20.25 326.03 20.73Q326.10 21.20 326.10 21.65L326.05 22Q326 22.30 325.90 22.77Q325.80 23.25 325.68 23.80Q325.55 24.35 325.35 24.80Q324.65 27 324.23 29.15Q323.80 31.30 323.55 33.48Q323.30 35.65 323.15 37.85Q323 40.05 322.85 42.30Q323.05 40.25 323.23 38Q323.40 35.75 323.70 33.48Q324 31.20 324.48 29.02Q324.95 26.85 325.80 24.95Q325.05 29.75 324.58 34.50Q324.10 39.25 323.80 44.10L323.20 44.40Q323.20 47.45 322.60 50.23Q322 53 321.25 55.95Q321 55.95 320.68 55.98Q320.35 56 320.05 56Q319.80 56 319.35 55.85Q318.90 55.70 318.40 55.48Q317.90 55.25 317.38 54.98Q316.85 54.70 316.50 54.45Q314.35 53.05 312.65 50.98Q310.95 48.90 309.60 46.40Q308.25 43.90 307.20 41.13Q306.15 38.35 305.23 35.55Q304.30 32.75 303.45 30.07Q302.60 27.40 301.75 25.15L301.45 25.40Q302.30 27.90 303.13 30.82Q303.95 33.75 304.88 36.78Q305.80 39.80 306.98 42.75Q308.15 45.70 309.73 48.25Q311.30 50.80 313.40 52.77Q315.50 54.75 318.30 55.85Q315.90 55.20 314.03 53.63Q312.15 52.05 310.63 49.90Q309.10 47.75 307.93 45.23Q306.75 42.70 305.80 40.10Q304.85 37.50 304.10 35Q303.35 32.50 302.70 30.45Q302.70 32.55 302.93 34.55Q303.15 36.55 303.15 38.60Q303.15 42.05 303.35 45.52Q303.55 49 303.75 52.45L302.65 52.65Q302.25 52.65 302.05 51.98Q301.85 51.30 301.75 50.45Q301.65 49.60 301.63 48.83Q301.60 48.05 301.60 47.85L301 47.85Q301 48.25 300.98 49.42Q300.95 50.60 300.80 51.85Q300.65 53.10 300.33 54.10Q300 55.10 299.40 55.10Q299 55.10 298.65 53.77Q298.30 52.45 297.95 50.27Q297.60 48.10 297.30 45.33Q297 42.55 296.80 39.70Q296.60 36.85 296.48 34.15Q296.35 31.45 296.35 29.40Q296.35 26.75 296.73 24.15Q297.10 21.55 297.95 19L303.45 17.95Q303.70 18.30 303.90 18.58Q304.10 18.85 304.35 19.15Q305.80 21.25 306.85 23.73Q307.90 26.20 308.75 28.88Q309.60 31.55 310.38 34.27Q311.15 37 312.10 39.58Q313.05 42.15 314.30 44.45Q315.55 46.75 317.35 48.55Q317.55 47.10 317.73 44.70Q317.90 42.30 318.13 39.55Q318.35 36.80 318.60 34.02Q318.85 31.25 319.23 28.98Q319.60 26.70 320.13 25.27Q320.65 23.85 321.35 23.85L321.65 24.05Q320.60 27.15 320.23 30.30Q319.85 33.45 319.68 36.65Q319.50 39.85 319.28 43.02Q319.05 46.20 318.30 49.30L318.60 49.45Q318.65 49 318.70 48.52Q318.75 48.05 318.85 47.60Q319.25 44.70 319.43 41.77Q319.60 38.85 319.83 35.90Q320.05 32.95 320.48 30.05Q320.90 27.15 321.80 24.35L322.30 24.70Q322.60 24.50 322.85 23.77Q323.10 23.05 323.45 22.27Q323.80 21.50 324.30 20.88Q324.80 20.25 325.55 20.25M320.45 55.55Q321 53.75 321.45 51.95Q321.90 50.15 322.15 48.25Q321.85 50.05 321.38 51.77Q320.90 53.50 320.45 55.25Q317.45 54.20 315.58 52.95Q313.70 51.70 312.43 50.10Q311.15 48.50 310.15 46.50Q309.35 44.95 308.40 43.05Q309 44.30 309.45 45.35Q310.15 46.80 310.83 48.02Q311.50 49.25 312.25 50.23Q313 51.20 314.10 52.08Q315.20 52.95 316.73 53.77Q318.25 54.60 320.45 55.55M318.15 50.55Q317.65 50.20 316.88 49.20Q316.10 48.20 315.33 47.13Q314.55 46.05 313.95 45.20Q313.35 44.35 313.25 44.30Q314.05 46.15 315.33 47.67Q316.60 49.20 318 50.55L318.15 50.55ZM356.90 46.70L356.60 46.55Q354.50 46 352.15 45.85Q349.80 45.70 347.35 45.20Q349.75 45.70 352.05 45.98Q354.35 46.25 356.60 47Q355.90 47.45 355.10 47.45Q354.15 47.35 353.23 47.15Q352.30 46.95 351.25 46.85Q351.25 46.55 351.40 46.40Q349.95 46.40 348.53 46.10Q347.10 45.80 345.75 45.42Q344.40 45.05 343.13 44.73Q341.85 44.40 340.75 44.40Q340.75 44.55 340.70 44.55Q342 44.80 343.15 45.25Q344.30 45.70 345.75 45.95Q347.15 46.30 348.48 46.45Q349.80 46.60 351.10 46.85Q349 46.65 346.83 46.25Q344.65 45.85 342.55 45.35L340.20 44.75Q338.95 47.95 337.68 51.02Q336.40 54.10 335.20 57.25Q335.10 57.05 334.88 57.02Q334.65 57 334.43 57Q334.20 57 334 56.88Q333.80 56.75 333.80 56.35Q333.80 55.95 334 55.23Q334.20 54.50 334.75 53.30Q334.65 53.20 334.43 53.18Q334.20 53.15 334.10 53.15Q333.10 55.25 332.18 56.38Q331.25 57.50 330.70 57.50Q330.10 57.50 330.10 56.35Q330.10 55.40 330.45 53.93Q330.80 52.45 331.33 50.75Q331.85 49.05 332.50 47.23Q333.15 45.40 333.75 43.65Q333.20 43.30 332.58 43.15Q331.95 43 331.20 42.90Q331.35 42.70 331.35 42.40Q331.35 42.10 331.40 41.80Q331.45 41.50 331.60 41.30Q331.75 41.10 332.15 41.10Q332.25 41.10 332.75 41.20L332.75 40.75Q331.95 40.35 331.53 39.80Q331.10 39.25 331.10 38.70Q331.10 37.50 333.40 37.50Q334.05 37.50 334.73 37.58Q335.40 37.65 336.10 37.75L338.40 32.50Q339.15 30.80 340.03 29Q340.90 27.20 342.10 25.45Q343.30 23.70 344.83 22.13Q346.35 20.55 348.35 19.30L349.10 19Q350.50 19.35 351.38 19.58Q352.25 19.80 352.80 19.90Q353.30 20.10 353.60 20.15L353.55 20.15L353.60 20.30Q353.60 20.35 353.55 20.40L354.15 21.45Q357.40 26.90 359.65 32.75Q361.90 38.60 363.50 44.25Q363.90 45.50 364.48 46.92Q365.05 48.35 365.58 49.63Q366.10 50.90 366.45 51.93Q366.80 52.95 366.80 53.40Q366.80 53.75 366.65 53.83Q366.50 53.90 366.25 53.90Q364.95 50.65 363.80 47.50Q362.65 44.40 361.55 41.25Q362.55 44.40 363.65 47.50Q364.80 50.65 365.95 53.90L365.60 53.90Q365.30 53.90 365.20 54.20Q365.30 54.30 365.45 54.73Q365.60 55.15 365.75 55.63Q365.90 56.10 366 56.60Q366.10 57.10 366.10 57.35Q366.10 58.45 365.45 58.45Q365.10 58.45 364.90 58.30Q364.70 58.15 364.45 57.90L363.95 57.40Q363.65 57.10 363.20 56.80L358.40 43Q359.45 46.25 360.48 49.50Q361.50 52.75 362.60 55.90Q361.80 54.95 361.13 53.60Q360.45 52.25 359.88 50.75Q359.30 49.25 358.80 47.67Q358.30 46.10 357.80 44.70Q357.80 44.80 357.83 44.88Q357.85 44.95 357.85 45.05Q357.85 45.85 357.35 46.25L356.90 46.70M356.60 41.50Q356.70 41.50 356.90 41.42Q357.10 41.35 357.20 41.35Q355.55 37.20 353.93 33.30Q352.30 29.40 350.35 25.80L350.05 26.10L350.80 27.45Q352.55 30.65 353.95 34.05Q355.35 37.45 356.60 41.05Q355.15 37.15 353.48 33.27Q351.80 29.40 349.90 26.25L349.70 26.35Q348 28.10 346.53 30.55Q345.05 33 343.75 35.55L342.45 38.70L343.30 38.90Q344.05 39.10 344.78 39.33Q345.50 39.55 346.05 39.80Q347.15 40.35 348.95 40.65Q350.75 40.95 352.48 41.23Q354.20 41.50 355.48 41.83Q356.75 42.15 356.75 42.75L350.65 42.05Q351.20 42.15 352 42.27Q352.80 42.40 353.63 42.55Q354.45 42.70 355.25 42.83Q356.05 42.95 356.60 43.05Q356.60 43.20 356.58 43.33Q356.55 43.45 356.55 43.55Q356.55 43.65 356.68 43.67Q356.80 43.70 356.98 43.73Q357.15 43.75 357.30 43.85Q357.45 43.90 357.60 44.15L356.60 41.50M345.75 30.80Q345.85 30.80 345.83 30.93Q345.80 31.05 345.85 31.05Q345.95 31.05 346.45 30.35Q346.95 29.65 347.60 28.75Q348.25 27.85 348.85 27.05Q349.45 26.25 349.70 26L349.45 25.65Q348.40 26.65 347.50 28Q346.60 29.35 345.75 30.80M350.80 25.40Q352.40 28.10 353.75 31.05Q355.05 33.95 356.20 36.85Q355.25 33.95 353.90 31.05Q352.50 28.10 350.85 25.40L350.80 25.40M358.45 32.90Q360 36.90 361.50 41.05Q360.10 37 358.55 33.05Q357.10 29.15 355.20 25.20Q357 29 358.45 32.90M351.10 24.30Q351.75 24.45 352 24.60Q352.25 24.75 352.35 24.75L352.40 24.60Q352.45 24.60 352.20 24.55Q351.95 24.50 351.80 24.45L351.90 24.25L351.30 24.05L351.10 24.30M348.65 23.80L349.05 24.85L349 23.80Q348.90 23.80 348.78 23.75Q348.65 23.70 348.55 23.70L348.65 23.80M349.95 25.25L349.60 25.50L349.90 25.90L350.20 25.60L349.95 25.25M350.65 25.15L350.70 25.15L350.45 24.80L350.45 24.85L350.65 25.15ZM400.15 53.30Q399.75 52.55 398.75 51.77Q397.75 51 396.35 50.25Q394.95 49.50 393.35 48.80Q391.75 48.10 390.20 47.42Q388.65 46.75 387.30 46.15Q386.35 45.75 385.65 45.35Q387.10 46.20 388.70 46.90Q390.55 47.75 392.43 48.65Q394.30 49.55 396.05 50.55Q397.80 51.55 399.25 52.85Q397.80 52.45 395.60 51.52Q393.40 50.60 391.13 49.48Q388.85 48.35 386.73 47.20Q384.60 46.05 383.30 45.20L383.65 44.75Q382.25 43.80 380.80 42.55Q379.35 41.30 378.55 39.80Q378 42.15 377.90 44.30Q377.80 46.45 377.80 48.40Q377.80 49.10 378.15 49.73Q378.50 50.35 378.50 50.90Q378.50 51.65 377.80 51.80Q377.40 50.85 377.20 49.90Q377 48.95 376.90 48Q376.90 49 377 49.95Q377.15 50.95 377.50 51.95L376.75 52.25L377.20 52.85Q377.10 53.40 376.78 53.88Q376.45 54.35 375.80 54.35Q375 54.35 374.53 53.48Q374.05 52.60 373.78 51.38Q373.50 50.15 373.43 48.88Q373.35 47.60 373.35 46.75Q373.35 45.05 373.38 43.40Q373.40 41.75 373.50 40.05Q373.25 41.65 373.23 43.30Q373.20 44.95 373.20 46.60Q373.20 48.35 373.40 50.20Q373.60 52.05 374 53.75Q373.35 53.15 373.03 52.40Q372.70 51.65 372.53 50.83Q372.35 50 372.28 49.15Q372.20 48.30 372.15 47.50L372.75 47.35Q372.55 46.60 372.50 45.83Q372.45 45.05 372.45 44.25Q372.45 42.50 372.70 40.83Q372.95 39.15 372.95 37.40L372.95 36.80L372.90 35.55L372.60 35.55Q372.50 37.95 372.32 40.35Q372.15 42.75 372.10 45.20Q372.05 44.70 372.05 44.25L372.05 43.30Q372.05 39.65 372.43 36.13Q372.80 32.60 373.20 29Q373.30 27.85 373.80 26.88Q374.30 25.90 374.60 24.85Q374.80 25 375.10 25.02Q375.40 25.05 375.65 25.07Q375.90 25.10 376.10 25.25Q376.30 25.40 376.30 25.75Q376.30 25.95 376.25 26.15L376.15 26.55L376.60 26.70Q376.95 26.15 377.50 25.65Q378.05 25.15 378.75 25.15Q379.30 25.15 379.55 25.60Q379.80 26.05 379.80 26.55Q379.80 26.85 379.73 27.80Q379.65 28.75 379.53 30Q379.40 31.25 379.25 32.67Q379.10 34.10 378.98 35.35Q378.85 36.60 378.75 37.48Q378.65 38.35 378.65 38.55L379.85 35.85Q379.70 36.30 379.57 36.60Q379.45 36.90 379.35 37.20Q379.25 37.50 379.07 37.85Q378.90 38.20 378.60 38.75L378.60 39.45L380.25 35.70Q381.05 35.70 381.82 35.67Q382.60 35.65 383.40 35.50L383.90 35.40Q382.80 35.40 382.18 35.38Q381.55 35.35 381 35.25Q383 35.25 384.98 35.17Q386.95 35.10 389 35.10Q390.80 35.10 392.57 35Q394.35 34.90 395.78 34.30Q397.20 33.70 398.10 32.45Q399 31.20 399 28.90Q399 26.55 398.40 25.10Q397.80 23.65 396.68 22.83Q395.55 22 393.85 21.73Q392.15 21.45 390 21.45Q385.60 21.45 381.15 21.85Q376.70 22.25 372.45 23.35Q372.35 22.95 372.30 22.63Q372.25 22.30 372.05 22.05Q372.05 21.75 372.60 21.50Q373.15 21.25 373.85 21.10Q374.55 20.95 375.18 20.85Q375.80 20.75 376 20.70L376 20.10Q375.65 20.15 374.80 20.20Q373.95 20.25 372.95 20.25Q371.60 20.25 370.45 20.08Q369.30 19.90 369.30 19.35Q369.30 18.75 370.63 18.20Q371.95 17.65 374 17.17Q376.05 16.70 378.50 16.35Q380.95 16 383.23 15.73Q385.50 15.45 387.28 15.32Q389.05 15.20 389.75 15.20Q393.35 15.20 396.25 15.92Q399.15 16.65 401.18 18.30Q403.20 19.95 404.28 22.63Q405.35 25.30 405.35 29.20Q405.35 32.45 404.13 34.73Q402.90 37 400.85 38.42Q398.80 39.85 396.15 40.52Q393.50 41.20 390.65 41.20Q389.85 41.20 389.07 41.15Q388.30 41.10 387.50 41.05Q388.05 41.40 389.32 42Q390.60 42.60 392.18 43.35Q393.75 44.10 395.48 44.92Q397.20 45.75 398.60 46.52Q400 47.30 400.90 47.98Q401.80 48.65 401.80 49.05L401.55 49.35Q399.90 48.15 398.15 47.25Q396.40 46.35 394.57 45.55Q392.75 44.75 390.90 44Q389.15 43.25 387.40 42.25Q389.10 43.25 390.80 44L394.35 45.60Q396.15 46.40 397.88 47.27Q399.60 48.15 401.20 49.35L400.55 49.95Q400.90 50.20 401.38 50.63Q401.85 51.05 402.28 51.55Q402.70 52.05 403 52.58Q403.30 53.10 403.30 53.55Q403.30 54.20 402.70 54.20Q402.10 54.20 401.40 53.85Q400.70 53.50 400.15 53.30M389.25 35.40Q388.25 35.40 387.18 35.42Q386.10 35.45 385 35.45Q386.25 35.50 387.60 35.58Q388.95 35.65 390.35 35.65Q392.10 35.65 393.78 35.42Q395.45 35.20 396.75 34.48Q398.05 33.75 398.82 32.48Q399.60 31.20 399.60 29.10Q399.60 28.40 399.50 27.75Q399.40 27.10 399.25 26.40L398.95 26.40Q399.25 27.60 399.25 28.85Q399.25 31.10 398.45 32.40Q397.65 33.70 396.30 34.38Q394.95 35.05 393.13 35.23Q391.30 35.40 389.25 35.40M380.40 36.50Q382.40 36.60 384.48 36.63Q386.55 36.65 388.75 36.65Q390.05 36.65 391.35 36.58Q392.65 36.50 393.85 36.25Q393.30 36.35 392.75 36.35L391.70 36.35Q391.10 36.35 390.25 36.33Q389.40 36.30 388.40 36.25Q387.40 36.20 386.30 36.17Q385.20 36.15 384.15 36.15Q383 36.15 382.05 36.20Q381.10 36.25 380.40 36.50M378.50 40.35Q379.50 41.65 380.53 42.77Q381.55 43.90 382.85 44.90Q381.65 44.05 380.43 42.85Q379.20 41.65 378.50 40.35M385.90 39.95Q386.90 40.05 387.90 40.10Q388.85 40.15 389.70 40.20Q389 40.15 388.30 40.05Q387.50 39.90 386.70 39.90L386.30 39.90Q386.10 39.90 385.90 39.95M380.25 36.50Q380.20 36.65 379.98 37.10Q379.75 37.55 379.53 38.08Q379.30 38.60 379.10 39.05Q378.90 39.50 378.90 39.65L379 39.55L380.25 36.65L380.25 36.50M385.45 40.90L385.30 40.90Q386 41.45 386.90 41.95L385.45 40.90M379.30 40.05Q379.40 40.30 379.63 40.63Q379.85 40.95 380.20 41.30Q379.90 40.95 379.70 40.58Q379.50 40.20 379.40 39.85L379.30 40.05M385.20 45.10Q385.35 45.20 385.45 45.25L385.20 45.10ZM415.10 56.70Q414.70 56.45 414.60 55.55Q414.50 54.65 414.50 53.35L414.50 52.15L414.05 52.15Q414 52.45 413.83 53.55Q413.65 54.65 413.38 55.88Q413.10 57.10 412.73 58.05Q412.35 59 411.90 59Q411.50 59 411.25 57.95Q411 56.90 410.90 55.52Q410.80 54.15 410.78 52.77Q410.75 51.40 410.75 50.75Q410.75 47.30 410.85 43.92Q410.95 40.55 410.95 37.15Q410.95 33.75 410.40 30.38Q409.85 27 409.85 23.70Q410.55 22.80 411.18 21.85Q411.80 20.90 412.40 19.90Q414.20 19.45 416.15 19.05Q418.10 18.65 420 18.65Q425.25 18.65 428.98 20.27Q432.70 21.90 435.05 24.88Q437.40 27.85 438.50 31.98Q439.60 36.10 439.60 41.05Q439.60 49.05 435.20 52.93Q430.80 56.80 422.90 56.80Q422.60 56.80 421.95 56.73Q421.30 56.65 421.05 56.35Q422.45 56.15 424.28 55.88Q426.10 55.60 427.95 55.20Q429.80 54.80 431.48 54.18Q433.15 53.55 434.25 52.60Q432.75 53.60 431.18 54.18Q429.60 54.75 427.98 55.05Q426.35 55.35 424.65 55.50Q422.95 55.65 421.25 55.85L421.40 55.30L421.25 54.90Q420.30 55.05 419.53 55.20Q418.75 55.35 417.90 55.35Q417.05 55.35 416.25 55.15L416.20 56.60L415.10 56.70M418.65 52.45Q422.10 52.45 425.08 52.25Q428.05 52.05 430.25 50.95Q432.45 49.85 433.73 47.58Q435 45.30 435 41.15Q435 39.10 434.73 36.83Q434.45 34.55 433.73 32.38Q433 30.20 431.75 28.40Q430.60 26.70 428.85 25.60Q430.55 26.75 431.65 28.45Q432.90 30.30 433.58 32.45Q434.25 34.60 434.53 36.88Q434.80 39.15 434.80 41.20Q434.80 43.95 434.30 45.77Q433.80 47.60 432.90 48.73Q432 49.85 430.68 50.45Q429.35 51.05 427.73 51.33Q426.10 51.60 424.15 51.73Q422.20 51.85 420 52Q421.75 51.25 423.78 51Q425.80 50.75 427.68 50.35Q429.55 49.95 431.05 48.98Q432.55 48 433.30 45.75L433.90 45.55Q434.10 44.55 434.15 43.77Q434.20 43 434.20 42Q434.20 38.90 433.70 35.78Q433.20 32.65 431.85 30.13Q430.50 27.60 428.10 26.02Q425.70 24.45 421.95 24.45Q420.55 24.45 419.18 24.63Q417.80 24.80 416.45 25.10Q416.55 25.15 416.55 25.25Q416.55 25.40 416.50 25.40Q419.15 24.85 421.60 24.85Q424.65 24.85 426.90 25.93Q429.15 27 430.63 28.88Q432.10 30.75 432.83 33.25Q433.55 35.75 433.60 38.60Q433.20 35.70 432.50 33.23Q431.80 30.75 430.45 28.95Q429.10 27.15 426.95 26.13Q424.80 25.10 421.50 25.10Q420.25 25.10 419 25.15Q417.75 25.20 416.55 25.60Q416.80 28.70 417 31.75Q417.20 34.80 417.20 37.90Q417.20 42 416.88 45.98Q416.55 49.95 416.30 54Q416.80 53.50 417.45 53.18Q418.10 52.85 418.65 52.45M438.60 41.30Q438.60 38.85 438.28 36.35Q437.95 33.85 437.25 31.50Q437.95 34.05 438.23 36.60Q438.50 39.15 438.50 41.75Q438.50 43.05 438.35 44.40Q438.30 44.55 438.30 44.70Q438.60 43.05 438.60 41.30M433.75 41.50Q433.75 42.25 433.65 42.95Q433.70 42.65 433.70 42.35L433.70 40.70Q433.70 40.75 433.70 40.80Q433.75 41.10 433.75 41.50M433.70 40.70Q433.70 40.40 433.65 40.15Q433.70 40.45 433.70 40.70M437.80 47Q437.90 46.70 437.95 46.40Q437.90 46.70 437.80 47ZM486.90 46.70L486.60 46.55Q484.50 46 482.15 45.85Q479.80 45.70 477.35 45.20Q479.75 45.70 482.05 45.98Q484.35 46.25 486.60 47Q485.90 47.45 485.10 47.45Q484.15 47.35 483.23 47.15Q482.30 46.95 481.25 46.85Q481.25 46.55 481.40 46.40Q479.95 46.40 478.53 46.10Q477.10 45.80 475.75 45.42Q474.40 45.05 473.13 44.73Q471.85 44.40 470.75 44.40Q470.75 44.55 470.70 44.55Q472 44.80 473.15 45.25Q474.30 45.70 475.75 45.95Q477.15 46.30 478.48 46.45Q479.80 46.60 481.10 46.85Q479 46.65 476.83 46.25Q474.65 45.85 472.55 45.35L470.20 44.75Q468.95 47.95 467.68 51.02Q466.40 54.10 465.20 57.25Q465.10 57.05 464.88 57.02Q464.65 57 464.43 57Q464.20 57 464 56.88Q463.80 56.75 463.80 56.35Q463.80 55.95 464 55.23Q464.20 54.50 464.75 53.30Q464.65 53.20 464.43 53.18Q464.20 53.15 464.10 53.15Q463.10 55.25 462.18 56.38Q461.25 57.50 460.70 57.50Q460.10 57.50 460.10 56.35Q460.10 55.40 460.45 53.93Q460.80 52.45 461.33 50.75Q461.85 49.05 462.50 47.23Q463.15 45.40 463.75 43.65Q463.20 43.30 462.58 43.15Q461.95 43 461.20 42.90Q461.35 42.70 461.35 42.40Q461.35 42.10 461.40 41.80Q461.45 41.50 461.60 41.30Q461.75 41.10 462.15 41.10Q462.25 41.10 462.75 41.20L462.75 40.75Q461.95 40.35 461.53 39.80Q461.10 39.25 461.10 38.70Q461.10 37.50 463.40 37.50Q464.05 37.50 464.73 37.58Q465.40 37.65 466.10 37.75L468.40 32.50Q469.15 30.80 470.03 29Q470.90 27.20 472.10 25.45Q473.30 23.70 474.83 22.13Q476.35 20.55 478.35 19.30L479.10 19Q480.50 19.35 481.38 19.58Q482.25 19.80 482.80 19.90Q483.30 20.10 483.60 20.15L483.55 20.15L483.60 20.30Q483.60 20.35 483.55 20.40L484.15 21.45Q487.40 26.90 489.65 32.75Q491.90 38.60 493.50 44.25Q493.90 45.50 494.48 46.92Q495.05 48.35 495.58 49.63Q496.10 50.90 496.45 51.93Q496.80 52.95 496.80 53.40Q496.80 53.75 496.65 53.83Q496.50 53.90 496.25 53.90Q494.95 50.65 493.80 47.50Q492.65 44.40 491.55 41.25Q492.55 44.40 493.65 47.50Q494.80 50.65 495.95 53.90L495.60 53.90Q495.30 53.90 495.20 54.20Q495.30 54.30 495.45 54.73Q495.60 55.15 495.75 55.63Q495.90 56.10 496 56.60Q496.10 57.10 496.10 57.35Q496.10 58.45 495.45 58.45Q495.10 58.45 494.90 58.30Q494.70 58.15 494.45 57.90L493.95 57.40Q493.65 57.10 493.20 56.80L488.40 43Q489.45 46.25 490.48 49.50Q491.50 52.75 492.60 55.90Q491.80 54.95 491.13 53.60Q490.45 52.25 489.88 50.75Q489.30 49.25 488.80 47.67Q488.30 46.10 487.80 44.70Q487.80 44.80 487.83 44.88Q487.85 44.95 487.85 45.05Q487.85 45.85 487.35 46.25L486.90 46.70M486.60 41.50Q486.70 41.50 486.90 41.42Q487.10 41.35 487.20 41.35Q485.55 37.20 483.93 33.30Q482.30 29.40 480.35 25.80L480.05 26.10L480.80 27.45Q482.55 30.65 483.95 34.05Q485.35 37.45 486.60 41.05Q485.15 37.15 483.48 33.27Q481.80 29.40 479.90 26.25L479.70 26.35Q478 28.10 476.53 30.55Q475.05 33 473.75 35.55L472.45 38.70L473.30 38.90Q474.05 39.10 474.78 39.33Q475.50 39.55 476.05 39.80Q477.15 40.35 478.95 40.65Q480.75 40.95 482.48 41.23Q484.20 41.50 485.48 41.83Q486.75 42.15 486.75 42.75L480.65 42.05Q481.20 42.15 482 42.27Q482.80 42.40 483.63 42.55Q484.45 42.70 485.25 42.83Q486.05 42.95 486.60 43.05Q486.60 43.20 486.58 43.33Q486.55 43.45 486.55 43.55Q486.55 43.65 486.68 43.67Q486.80 43.70 486.98 43.73Q487.15 43.75 487.30 43.85Q487.45 43.90 487.60 44.15L486.60 41.50M475.75 30.80Q475.85 30.80 475.83 30.93Q475.80 31.05 475.85 31.05Q475.95 31.05 476.45 30.35Q476.95 29.65 477.60 28.75Q478.25 27.85 478.85 27.05Q479.45 26.25 479.70 26L479.45 25.65Q478.40 26.65 477.50 28Q476.60 29.35 475.75 30.80M480.80 25.40Q482.40 28.10 483.75 31.05Q485.05 33.95 486.20 36.85Q485.25 33.95 483.90 31.05Q482.50 28.10 480.85 25.40L480.80 25.40M488.45 32.90Q490 36.90 491.50 41.05Q490.10 37 488.55 33.05Q487.10 29.15 485.20 25.20Q487 29 488.45 32.90M481.10 24.30Q481.75 24.45 482 24.60Q482.25 24.75 482.35 24.75L482.40 24.60Q482.45 24.60 482.20 24.55Q481.95 24.50 481.80 24.45L481.90 24.25L481.30 24.05L481.10 24.30M478.65 23.80L479.05 24.85L479 23.80Q478.90 23.80 478.78 23.75Q478.65 23.70 478.55 23.70L478.65 23.80M479.95 25.25L479.60 25.50L479.90 25.90L480.20 25.60L479.95 25.25M480.65 25.15L480.70 25.15L480.45 24.80L480.45 24.85L480.65 25.15ZM530.15 53.30Q529.75 52.55 528.75 51.77Q527.75 51 526.35 50.25Q524.95 49.50 523.35 48.80Q521.75 48.10 520.20 47.42Q518.65 46.75 517.30 46.15Q516.35 45.75 515.65 45.35Q517.10 46.20 518.70 46.90Q520.55 47.75 522.42 48.65Q524.30 49.55 526.05 50.55Q527.80 51.55 529.25 52.85Q527.80 52.45 525.60 51.52Q523.40 50.60 521.13 49.48Q518.85 48.35 516.73 47.20Q514.60 46.05 513.30 45.20L513.65 44.75Q512.25 43.80 510.80 42.55Q509.35 41.30 508.55 39.80Q508 42.15 507.90 44.30Q507.80 46.45 507.80 48.40Q507.80 49.10 508.15 49.73Q508.50 50.35 508.50 50.90Q508.50 51.65 507.80 51.80Q507.40 50.85 507.20 49.90Q507 48.95 506.90 48Q506.90 49 507 49.95Q507.15 50.95 507.50 51.95L506.75 52.25L507.20 52.85Q507.10 53.40 506.78 53.88Q506.45 54.35 505.80 54.35Q505 54.35 504.53 53.48Q504.05 52.60 503.78 51.38Q503.50 50.15 503.43 48.88Q503.35 47.60 503.35 46.75Q503.35 45.05 503.38 43.40Q503.40 41.75 503.50 40.05Q503.25 41.65 503.23 43.30Q503.20 44.95 503.20 46.60Q503.20 48.35 503.40 50.20Q503.60 52.05 504 53.75Q503.35 53.15 503.03 52.40Q502.70 51.65 502.53 50.83Q502.35 50 502.28 49.15Q502.20 48.30 502.15 47.50L502.75 47.35Q502.55 46.60 502.50 45.83Q502.45 45.05 502.45 44.25Q502.45 42.50 502.70 40.83Q502.95 39.15 502.95 37.40L502.95 36.80L502.90 35.55L502.60 35.55Q502.50 37.95 502.32 40.35Q502.15 42.75 502.10 45.20Q502.05 44.70 502.05 44.25L502.05 43.30Q502.05 39.65 502.43 36.13Q502.80 32.60 503.20 29Q503.30 27.85 503.80 26.88Q504.30 25.90 504.60 24.85Q504.80 25 505.10 25.02Q505.40 25.05 505.65 25.07Q505.90 25.10 506.10 25.25Q506.30 25.40 506.30 25.75Q506.30 25.95 506.25 26.15L506.15 26.55L506.60 26.70Q506.95 26.15 507.50 25.65Q508.05 25.15 508.75 25.15Q509.30 25.15 509.55 25.60Q509.80 26.05 509.80 26.55Q509.80 26.85 509.73 27.80Q509.65 28.75 509.53 30Q509.40 31.25 509.25 32.67Q509.10 34.10 508.98 35.35Q508.85 36.60 508.75 37.48Q508.65 38.35 508.65 38.55L509.85 35.85Q509.70 36.30 509.57 36.60Q509.45 36.90 509.35 37.20Q509.25 37.50 509.07 37.85Q508.90 38.20 508.60 38.75L508.60 39.45L510.25 35.70Q511.05 35.70 511.82 35.67Q512.60 35.65 513.40 35.50L513.90 35.40Q512.80 35.40 512.17 35.38Q511.55 35.35 511 35.25Q513 35.25 514.98 35.17Q516.95 35.10 519 35.10Q520.80 35.10 522.58 35Q524.35 34.90 525.77 34.30Q527.20 33.70 528.10 32.45Q529 31.20 529 28.90Q529 26.55 528.40 25.10Q527.80 23.65 526.67 22.83Q525.55 22 523.85 21.73Q522.15 21.45 520 21.45Q515.60 21.45 511.15 21.85Q506.70 22.25 502.45 23.35Q502.35 22.95 502.30 22.63Q502.25 22.30 502.05 22.05Q502.05 21.75 502.60 21.50Q503.15 21.25 503.85 21.10Q504.55 20.95 505.18 20.85Q505.80 20.75 506 20.70L506 20.10Q505.65 20.15 504.80 20.20Q503.95 20.25 502.95 20.25Q501.60 20.25 500.45 20.08Q499.30 19.90 499.30 19.35Q499.30 18.75 500.63 18.20Q501.95 17.65 504 17.17Q506.05 16.70 508.50 16.35Q510.95 16 513.23 15.73Q515.50 15.45 517.27 15.32Q519.05 15.20 519.75 15.20Q523.35 15.20 526.25 15.92Q529.15 16.65 531.17 18.30Q533.20 19.95 534.27 22.63Q535.35 25.30 535.35 29.20Q535.35 32.45 534.13 34.73Q532.90 37 530.85 38.42Q528.80 39.85 526.15 40.52Q523.50 41.20 520.65 41.20Q519.85 41.20 519.08 41.15Q518.30 41.10 517.50 41.05Q518.05 41.40 519.33 42Q520.60 42.60 522.17 43.35Q523.75 44.10 525.48 44.92Q527.20 45.75 528.60 46.52Q530 47.30 530.90 47.98Q531.80 48.65 531.80 49.05L531.55 49.35Q529.90 48.15 528.15 47.25Q526.40 46.35 524.58 45.55Q522.75 44.75 520.90 44Q519.15 43.25 517.40 42.25Q519.10 43.25 520.80 44L524.35 45.60Q526.15 46.40 527.88 47.27Q529.60 48.15 531.20 49.35L530.55 49.95Q530.90 50.20 531.38 50.63Q531.85 51.05 532.27 51.55Q532.70 52.05 533 52.58Q533.30 53.10 533.30 53.55Q533.30 54.20 532.70 54.20Q532.10 54.20 531.40 53.85Q530.70 53.50 530.15 53.30M519.25 35.40Q518.25 35.40 517.17 35.42Q516.10 35.45 515 35.45Q516.25 35.50 517.60 35.58Q518.95 35.65 520.35 35.65Q522.10 35.65 523.77 35.42Q525.45 35.20 526.75 34.48Q528.05 33.75 528.83 32.48Q529.60 31.20 529.60 29.10Q529.60 28.40 529.50 27.75Q529.40 27.10 529.25 26.40L528.95 26.40Q529.25 27.60 529.25 28.85Q529.25 31.10 528.45 32.40Q527.65 33.70 526.30 34.38Q524.95 35.05 523.13 35.23Q521.30 35.40 519.25 35.40M510.40 36.50Q512.40 36.60 514.48 36.63Q516.55 36.65 518.75 36.65Q520.05 36.65 521.35 36.58Q522.65 36.50 523.85 36.25Q523.30 36.35 522.75 36.35L521.70 36.35Q521.10 36.35 520.25 36.33Q519.40 36.30 518.40 36.25Q517.40 36.20 516.30 36.17Q515.20 36.15 514.15 36.15Q513 36.15 512.05 36.20Q511.10 36.25 510.40 36.50M508.50 40.35Q509.50 41.65 510.53 42.77Q511.55 43.90 512.85 44.90Q511.65 44.05 510.43 42.85Q509.20 41.65 508.50 40.35M515.90 39.95Q516.90 40.05 517.90 40.10Q518.85 40.15 519.70 40.20Q519 40.15 518.30 40.05Q517.50 39.90 516.70 39.90L516.30 39.90Q516.10 39.90 515.90 39.95M510.25 36.50Q510.20 36.65 509.98 37.10Q509.75 37.55 509.53 38.08Q509.30 38.60 509.10 39.05Q508.90 39.50 508.90 39.65L509 39.55L510.25 36.65L510.25 36.50M515.45 40.90L515.30 40.90Q516 41.45 516.90 41.95L515.45 40.90M509.30 40.05Q509.40 40.30 509.63 40.63Q509.85 40.95 510.20 41.30Q509.90 40.95 509.70 40.58Q509.50 40.20 509.40 39.85L509.30 40.05M515.20 45.10Q515.35 45.20 515.45 45.25L515.20 45.10ZM569.70 23.25Q565.85 23.25 562.05 23.48Q558.25 23.70 554.45 23.70Q555.10 23.75 555.73 23.77Q556.35 23.80 557.05 23.80Q559.35 23.80 561.63 23.73Q563.90 23.65 566.20 23.65L567.70 23.65Q568.45 23.65 569.25 23.70Q568.55 24.15 567.77 24.35Q567 24.55 566.23 24.63Q565.45 24.70 564.63 24.70Q563.80 24.70 563 24.75L562.55 24.15Q561.40 24.35 560.25 24.40Q559.10 24.45 557.95 24.45L553.50 24.40L553.55 24.85L561.90 24.80Q557.65 25.05 553.55 25.10Q553.60 25.75 553.65 26.38Q553.70 27 553.80 27.65L553.20 27.80Q553.60 29.50 553.77 31.52Q553.95 33.55 554.10 35.65Q554.25 37.75 554.52 39.77Q554.80 41.80 555.35 43.45L555.50 43.30Q555.20 41.60 554.95 39.63Q554.70 37.65 554.48 35.58Q554.25 33.50 554.05 31.50Q553.90 29.60 553.80 27.95Q554 30.60 554.40 33.50Q554.85 36.45 555.35 39.48Q555.85 42.50 556.33 45.45Q556.80 48.40 557.20 51.10Q557.30 51.95 557.45 52.93Q557.60 53.90 557.60 54.90L557.60 55.50Q557.60 55.85 557.50 56.15Q557.15 56.15 556.83 56.27Q556.50 56.40 556.15 56.40Q555.60 56.40 555.48 55.85Q555.35 55.30 555.35 54.90L554.90 54.90Q554.85 55.20 554.73 55.68Q554.60 56.15 554.38 56.60Q554.15 57.05 553.83 57.35Q553.50 57.65 553.10 57.65Q552.60 57.65 552.20 56.95Q551.80 56.25 551.48 55.15Q551.15 54.05 550.93 52.73Q550.70 51.40 550.52 50.18Q550.35 48.95 550.23 47.95Q550.10 46.95 550 46.50Q549.50 44.40 549.08 41.90Q548.65 39.40 548.35 36.85Q548.05 34.30 547.88 31.77Q547.70 29.25 547.70 27.05Q547.70 26.70 547.73 26.38Q547.75 26.05 547.75 25.70L547.75 25.40Q547.75 25.20 547.70 25Q544.75 24.95 542.10 24.73Q539.45 24.50 536.20 24.10Q536.25 23.80 536.25 23.45Q536.25 23.10 536.33 22.80Q536.40 22.50 536.58 22.27Q536.75 22.05 537.20 22.05Q537.50 22.05 537.90 22.15L538.05 21.70Q537.45 21.45 536.65 20.90Q535.85 20.35 535.85 19.60Q535.85 19.15 536.20 18.92Q536.55 18.70 537.05 18.60Q537.55 18.50 538.05 18.48Q538.55 18.45 538.80 18.45Q540.60 18.45 542.38 18.65Q544.15 18.85 545.95 18.85Q550.50 18.85 555 18.98Q559.50 19.10 564.05 19.10Q564.95 19.10 565.83 18.85Q566.70 18.60 567.60 18.60Q567.95 18.60 568.23 18.80Q568.50 19 568.50 19.40Q567.15 19.65 565.75 19.80Q564.50 19.90 563.20 20Q564.50 20 565.75 19.90Q567.10 19.80 568.50 19.70L568.50 20.65L569.40 20.50Q569.80 20.60 570.15 20.88Q570.50 21.15 570.50 21.65Q570.50 22.10 570.25 22.52Q570 22.95 569.70 23.25M552.15 25.10Q552.25 26.55 552.43 28.30Q552.60 30.05 552.80 31.85Q553 33.65 553.23 35.38Q553.45 37.10 553.65 38.55Q553.50 37.15 553.33 35.40Q553.15 33.65 553 31.85Q552.85 30.05 552.73 28.30Q552.60 26.55 552.60 25.10L552.15 25.10M561.25 20L558.50 20Q557.25 20 556 19.95Q556.60 20.05 557.15 20.15Q557.85 20.30 558.70 20.30Q559.30 20.30 559.98 20.20Q560.65 20.10 561.25 20M552.35 24.85L552.60 24.85L552.60 24.40L552.35 24.40L552.35 24.85Z"/></g></g></svg>