<svg xmlns="http://www.w3.org/2000/svg" viewBox="0 0 798.827 110.906">
  <path d="M-368.432 27.068c1.367-2.214 2.426-1.235 4.233 0-.714-3.127.303-4.188.953-7.087.583-2.593.184-6.585-.462-9.14-1.049-4.152-3.71-9.591-7.547-11.784-1.846-1.054-4.922-1.66-6.655-.111-2.05 1.831-2.006 4.804-2.22 7.307-.703 8.256 1.629 12.323 7.786 17.511 1.36 1.147 2.27 2.536 3.912 3.304M-244.96 3.08c-.156 1.237-.715 2.93.01 4.072 1.29 2.033 3.485 2.277 3.507 5.1.018 2.202-.644 4.406-.58 6.602.304 10.524 2.298 21.76 4.004 32.203.737 4.507.972 9.348 2.23 13.759 2.267 7.941 6.286 15.3 9.174 22.93-3.233.933-5.466 2.87-5.645 6.35 1.736-1.128 2.831-1.994 4.94-1.41l-2.47 1.41v.353l5.997-1.058v.352l-2.117 1.059.353 1.41 11.642-3.174-4.586 3.88 10.583-3.175v.353l-2.822 1.059v.352c5.593-.838 9.924-3.953 14.816-6.417 5.808-2.925 11.781-5.296 17.3-8.665 2.402-1.465 4.022-3.533 6.69-4.673.524 6.018 3.794 12.969 8.497 16.822 1.793 1.469 4.01 1.41 5.613 3.286 4.332-1.527 3.948-4.792 2.78-8.467-1.618-5.093-3.233-8.47-3.167-13.758.016-1.26-.844-2.634-.24-3.842 1.352-2.703 7.418-.94 9.8-.776 2.102.145 6.18-.423 7.965.747 2.378 1.558 3.722 7.3 4.664 9.868 1.89 5.168 5.01 9.678 8.184 14.111h.353v-1.41l5.997 5.291-.275-4.128 1.93-2.581-1.655-10.577h.353c2.357 6.318 3.613 11.575 8.453 16.579 2.039 2.109 3.32 3.945 6.364 4.235l-1.058-2.822 2.47 1.058c-.11-1.447-.495-2.11-1.765-2.822l.353-1.059h.705l1.059 1.059-2.583-17.64-2.709-13.758 4.94-.198 8.113 5.138 19.755 15.724 7.409 3.843 4.16.203 5.365 8.452h.353l-.353-2.47 2.47 5.292c2.649-1.124 2.469-5.244 2.469-7.761l1.058 1.058c2.01-6.738-.688-14.486-1.901-21.167-1.37-7.541-1.627-15.288-1.627-22.93 5.983 5.522 9.278 15.354 13.558 22.225 5.143 8.267 12.075 14.655 17.487 22.578h.352v-2.47l5.292 4.233-1.411-6.702c5.433 1.131 6.265 9.272 10.583 11.641l-1.41-6.702 5.996 8.819-2.116-8.114 2.47.706.705 2.116h.353c-1.577-8.257-1.457-17.705-1.059-26.105l10.23 1.397 5.194.67L14.13 85.63l10.28 13.758 6.149 9.172-3.528-9.878h.705c1.313 2.683 3.655 7.09 6.35 8.467l-1.764-7.056 2.117 2.117c-.78-9.567-6.248-18.234-10.022-26.811-5.193-11.795-8.943-24.375-14.56-35.983-2.73-5.649-5.122-9.956-10.269-13.43-1.376-.928-2.272-2.338-4.014-2.701-6.068-1.265-6.178 4.643-8.146 8.722-4.61 9.56-8.24 21.423-8.728 32.103h-.705c0-9.549-2.392-18.169-3.733-27.516-.529-3.695-.942-9.529-3.912-12.209-1.676-1.514-5.179-.862-7.172-.492l-1.058 33.162C-44.303 49.5-49.221 40.61-55.73 33.034c-2.407-2.8-5.05-7.326-8.961-7.967-7.342-1.202-6.58 5.92-6.7 10.82-.282 11.585-.811 23.98 2.113 35.279-2.917.37-4.949-2.793-7.059-4.419-3.838-2.955-7.87-5.768-11.99-8.303-1.824-1.122-3.45-2.637-5.645-2.8 1.531-2.695 4.819-1.813 6.964-3.502 4.11-3.236 4.96-12.453 2.984-16.96-5.097-11.618-21.233-14.718-32.173-12.813-3.62.63-9.51.915-11.635 4.479-.649 1.095-.144 2.571-.031 3.748.328 3.565 1.14 7.043 1.64 10.584 1.806 12.817 3.429 25.624 5.087 38.452-2.716-2.885-3.062-9.944-4.244-13.758-1.968-6.36-4.582-12.42-6.787-18.697-1.891-5.391-3.62-11.571-7.017-16.228-1.715-2.35-3.87-4.075-6.294-5.653-2.755-1.794-9.394-5.493-12.7-4.79-2.928.622-4.834 3.453-6.734 5.504-6.293 6.794-9.656 17.227-9.846 26.458-6.567-4.624-12.86-9.51-21.167-10.583 1.365-3.814 2.92-7.195 2.828-11.289-.053-2.287.351-4.843-.324-7.055-4.877-15.965-23.264-21.126-38.134-21.663-4.494-.162-8.93 1.35-13.406 1.202m-259.997 5.644c-6.356 13.98-.813 29.984 1.26 44.45 1.118 7.806.909 15.656 3.259 23.283 1.24 4.023 2.42 8.872 4.882 12.346 1.427 2.015 4.927 3.501 5.544 5.992.416 1.677-1.574 1.514-2.598 1.418v.353l7.408 1.058v.353l-1.41.353v.352l3.88.706v.353l-7.408-.353.352 1.411c-1.752-.075-4.876-1.273-5.997.353l17.286 1.41v.354l-8.466 1.058v.353a95.3 95.3 0 0 0 42.333-9.92c5.007-2.483 9.163-6.864 14.111-9.13l-1.764 2.116c1.303-.637 1.983-1.364 2.117-2.822l3.175-1.41c-.07-2.264 2.003-3.41 3.88-4.234l-.705-1.059c3.563-1.51 3.55-4.96 5.997-7.408.456 5.772 1.355 11.887 5.199 16.328 3.44 3.976.116 12 2.208 16.833 2.062 4.763 6.684.722 7.02-2.822.493-5.187-1.342-9.795-1.51-14.817-.116-3.463.843-7.064.841-10.583 0-2.495-1.977-8.455 2.47-8.316 3.056.095 8.078 5.92 10.23 7.963 6.308 5.989 12.88 13.081 20.049 17.943 2.3 1.56 3.887 3.763 6.762 4.282l-.352-2.116 2.116.352-1.058-4.939h.353l.705 2.47 7.409 2.822c1.082-2.296 2.36-1.689 3.88 0h.353c-.35-4.29.893-7.967.247-12.347-.933-6.334-3.434-12.158-4.888-18.345-1.443-6.133-1.843-12.504-2.957-18.697-1.006-5.59-.688-14.598-7.219-17.025-5.485-2.04-9.451 4.869-9.063 9.617.57 6.97.186 14.275 1.416 21.167 1.107 6.204 3.255 12.164 4.472 18.344l-4.646-5.436-9.818-8.03-7.055-5.584c1.802-2.418 3.809-1.041 5.75-2.48 2.8-2.071 4.873-11.206 4.1-14.453-2.943-12.366-15.831-17.29-27.136-17.286-3.942.001-9.742.306-12.472 3.602-4.065 4.909.973 12.73-.228 18.27l-8.82-5.075-14.464-2.686v-.353l3.175-.706-.705-.705v-.353c1.037-1.202.897-2.418 1.34-3.88 2.651-8.778-2.865-16.18-9.805-21.096-8.358-5.92-15.523-6.835-25.402-7.511-3.452-.237-7.125-.908-10.583-.443-6.45.867-12.652 3.397-19.05 4.355m626.18 48.33h-.352c-.805-4.324-.237-8.589-2.248-12.7-1.88-3.838-4.748-6.164-7.983-8.79-9.768-7.934-19.657-10.222-31.75-12.403-5.33-.962-10.417-2.452-15.875-2.443-1.785.003-4.762.127-5.58 2.139-.555 1.356 1.844 2.405 2.61 3.189 2.046 2.094 4.17 4.266 6.85 5.5 1.5.69 4.71 1.388 5.433 3.01 1.352 3.037.904 7.906 1.376 11.21 1.062 7.42 1.496 14.763 2.043 22.225.197 2.69 1.273 5.407 1.026 8.114-6.35-3.241-12.922-9.993-20.108-11.29.907-2.344 2.861-4.095 3.972-6.35 2.216-4.512 3.207-10.708 1.479-15.522C57.8 30.913 41.65 27.57 30.56 27.42c-4.022-.054-8.174-.941-11.62 1.913-.714.59-1.539 1.558-1.2 2.558.48 1.402 2.399 1.817 2.98 3.297 1.267 3.22.904 7.827 1.51 11.283 2.643 15.096 6.679 30.667 11.752 45.156 1.185 3.389 3.601 5.962 5.08 9.172.822 1.783 1.065 3.938 3.14 4.586l-2.47-7.055h.353c1.562 3.188 3.739 8.547 6.702 10.583-1.118-2.899-2.152-5.706-1.41-8.82h.352l1.411 3.175h.353l-1.058-3.527 1.058-.353c-1.605-8.616-2.55-17.105-5.645-25.4 5.366.003 9.6 3.466 13.759 6.534 4.561 3.368 9.567 6.102 14.11 9.508 3.543 2.657 7.328 6.327 11.643 7.594v1.058l-3.175 1.411.705 1.412 3.175-.706-2.117 3.175v.353l5.998.705-3.88 2.117v.353c3.767-.71 10.858-5.712 12.7-.706h.352c-.106-5.161 3.055-5.647 6.512-9.118 4.876-4.897 10.848-9.71 14.573-15.576 2.286-3.603 2.29-9.788 5.02-12.7.018 6.447.787 17.196 6.35 21.52l-.352-3.881h.705l2.117 4.233v-2.822c1.789 1.49 1.59 4.147 1.764 6.35h.353c.472-1.603-.29-3.411.275-4.9.568-1.5 2.41-1.492 2.78-3.22 1.672-7.818 1.347-17.042 1.53-25.041l17.992 1.614 5.532.512 2.258 9.163 3.785 16.933 4.653 9.172h.706l-.353-3.88c2.445.769 3.231 5.11 3.528 7.408h.352l-.352-5.292c3.587.158 1.83 5.639 4.233 7.409l-1.411-9.173 1.764 3.88c1.266-2.014 1.083-4.405 1.058-6.702-.074-6.001-1.743-11.828-3.027-17.639-.423-1.928-2.942-7.712.558-7.408l-.706 1.411 1.058.353 1.793 7.76 4.303 13.405 2.833 4.267.596 4.201h.353l-.705-9.172h.352l2.47 8.467 1.411-.353-.706-1.764c1.302 1.242 1.405 2.497 1.412 4.233l1.763-.353-.705-.705.353-2.822h1.41c0-2.128.675-4.258.572-6.35-.3-6.28-2.127-12.233-3.393-18.345-.325-1.565-2.392-6.959-1.14-8.217.875-.877 2.787.485 3.609.896 3.235 1.615 6.615 2.862 9.878 4.41 6.16 2.92 12.57 5.333 18.697 8.334 7.15 3.503 14.178 8.003 22.225 8.336v-1.06c1.775.684 4.978 2.584 6.35.706l-3.175-.706.353-1.41-2.117-1.06 5.292 1.06v-.354l-3.528-2.116 3.175-1.059v-.352c-2.117-.823-2.798-2.018-2.822-4.234l-1.764.353.705-4.233c-1.326.279-2.522 1.722-3.88 1.559-2.875-.344-6.4-4.225-8.82-5.76-7.045-4.466-15.158-9.805-23.283-12.027 1.171-2.512 3.722-4.013 5.2-6.35 1.912-3.028 1.99-8.549 1.386-11.995-.567-3.232-3.16-4.803-5.203-7.065-7.99-8.842-22.955-12.303-34.544-10.86-3.059.38-7.302 3.542-2.822 5.578-2.512 9.688-1.764 18.764-1.764 28.575-1.648-1.368-1.58-3.299-1.976-5.292-.663-3.35-1.492-6.673-2.691-9.877-3.708-9.928-10.541-22.443-19.03-29.057-6.265-4.882-12.876 2.702-15.839 7.89-2.766 4.852-6.276 9.333-8.544 14.464-3.426 7.747-4.76 17.714-5.19 26.106M-222.735 38.71c-1.272-4.525-1.613-9.746-2.353-14.432-.258-1.637-.72-3.746.591-5.11 2.75-2.861 9.6 1.189 12.024 2.561.91.515 2.44.502 2.93 1.566.875 1.903-.892 4.501-1.996 5.89-2.973 3.74-6.595 7.781-11.196 9.525m-263.525 1.058c-1.153-4.789-1.985-9.575-2.57-14.463-.183-1.532-.889-4.494.363-5.736.976-.968 3.394-.455 4.677-.556 5.896-.463 10.904 2.177 16.58 2.762 1.401.145 6.045 1.056 6.58 2.559.477 1.336-4.878 3.336-5.874 3.91-4.277 2.467-8.517 4.985-12.7 7.613-2.205 1.384-4.465 3.396-7.056 3.911m142.875 56.092c2.748-.159 4.494 1.94 6.703 3.175l-1.058-3.88c2.393.16 3.95 1.628 5.291 3.527h.353l-2.47-7.76 2.823 1.763c-1.68-6.278-3.051-12.317-4.303-18.697-.254-1.297-1.586-5.458-.157-6.307 1.895-1.128 4.723 1.556 6.59 1.701 2.724.213 5.457-.282 7.61 1.89 2.342 2.362 2.905 6.478 4.237 9.419 1.609 3.556 2.77 7.83 5.288 10.875 1.59 1.925 3.912 3.111 5.782 4.72 1.65 1.421 2.94 3.228 4.939 4.16l-1.764-4.233 5.644 2.822-3.175-7.408 2.823 2.47c-.921-4.027-3.179-8.104-4.652-11.995l-8.114-21.52c-3.014-7.95-4.592-16.97-8.807-24.341-2.867-5.014-8.985-12.786-15.469-13.103-2.374-.116-3.021 2.14-4.677 3.23-5.22 3.433-8.295 8.362-9.463 14.812-2.593 14.313-3.352 29.169.645 43.391 1.144 4.07 4.188 7.174 5.381 11.29m563.386-70.91c-3.309-.615-4.201 1.684-5.291 4.234l9.525 5.805 16.58 2.757 6.523 1.176 1.326 4.02 1.419 10.584 3.217 28.575 4.448 13.053 1.059-.353-.353-3.175h.353l2.116 4.939v-2.823h.353l3.175 7.762-.705-5.645 1.764 4.586h.352l-.352-4.586 1.763.353-1.058-5.292 1.411-.353-1.125-18.697-1.344-8.466-1.059.352-1.53-12.348-1.292-5.643.353-4.586c5.457 1.028 11.723 2.601 17.286 1.6 3.838-.691 7.094-3.15 10.936-3.717l-2.822-2.47 3.88-.352v-.353l-5.291-1.411c1.7-1.437 3.15-1.411 5.292-1.411v-.353l-7.41-2.823v-.353h1.764c-1.71-3.117-8.692-4.38-11.994-5.079-8.019-1.696-16.92-1.475-25.048-1.276-4.783.117-9.712-.416-14.463.208-3.352.44-11.455-1.289-13.759 1.56m-81.139 25.4c.19-8.97 5.243-18.616 8.467-26.81 2.12.652 2.882 3.056 3.736 4.939 2.035 4.502 4.166 8.962 5.464 13.758.367 1.351 1.934 4.913 1.016 6.137-.836 1.115-3.707.526-4.924.58-4.643.203-9.106 1.397-13.759 1.397m-404.636-24.695c1.278 4.298-.773 9.739-1.31 14.111-.67 5.456-.1 10.78-.1 16.228-3.33-3.848-5.761-8.441-9.055-12.287-3.96-4.626-8.375-8.1-13.17-11.785-3.385-2.6-8.498-7.537-13.327-6.155-1 .287-1.648 1.471-2.549 2.005.568 1.435-.212 2.735-.138 4.233.186 3.76.793 7.555 1.296 11.29 1.47 10.907 3.912 21.7 7.47 32.102 2.152 6.292 3.497 12.28 8.366 17.253 1.526 1.56 3.513 2.464 5.226 3.776 1.265.968 2.087 2.255 3.533 2.96l-1.058-2.822 4.586 1.41-2.117-6.35 2.47 1.412-7.86-20.461-3.077-17.992c2.03.737 2.987 2.858 4.126 4.586 1.954 2.965 4.012 5.885 6.015 8.82 6.558 9.605 12.799 18.488 22.31 25.364 1.407 1.018 2.302 2.457 3.885 3.21l-.705-2.469 3.175 1.411h.353l1.058-.705-1.764-3.528 5.292 4.586-2.822-7.055 2.469.705c-.382-4.8-3.478-8.25-4.866-12.7-.53-1.7-.679-4.286-2.542-4.939-.452-10.349-4.351-20.262-4.555-30.691-.104-5.348 2.641-10.252-1.677-14.761-2.435-2.543-6.025-.846-8.938-.762m451.909 4.94c4.399.036 8.47 2.187 12.347 4.05 1.347.648 3.775 1.566 3.75 3.363-.06 3.787-6.124 7.418-9.042 8.9-1.086.552-2.875 1.863-4.134 1.225-1.362-.689-1.334-3.19-1.51-4.486-.59-4.277-1.411-8.744-1.411-13.053m-298.803 22.578-4.234-19.756c2.17-.547 4.223.525 6.35.926 2.985.563 6.23.325 9.173 1.026 1.27.303 2.854 1.066 3.432 2.315.875 1.887-1.231 4.189-2.23 5.611-3.104 4.424-6.702 9.63-12.491 9.878m-221.545-15.522 5.073 13.053.913 4.677-9.513 1.32c-.4-1.842.115-3.78.292-5.645.404-4.24.218-9.985 3.235-13.405M93.354 82.807l-5.25-26.81-3.922-16.934c16.146 2.419 25.283 22.525 16.245 35.983-1.845 2.748-3.651 6.8-7.073 7.761m-498.122-42.936c.97-.108 1.862.036 2.822.15 1.065.125 2.481-.108 3.416.516 2.709 1.809-1.98 7.705-2.98 9.462-.764 1.342-2.462 5.773-4.283 5.773-1.502 0-1.396-4.332-1.594-5.42-.811-4.458-3.573-9.794 2.619-10.481M37.968 60.23h-.706l-4.939-20.11c4.72-1.382 16.807 2.952 14.82 9.172-1.223 3.824-3.986 3.509-6.572 5.551-1.375 1.088-1.876 3.817-2.603 5.386m-189.442-17.992 4.234 13.053c-2.413 0-7.172.513-8.083-2.484-.486-1.603.501-3.153-.031-4.925l1.058-5.291zm149.578 0c2.47 4.89 4.7 12.152 4.939 17.639-1.997 0-7.017 1.296-8.6-.01-1.041-.857.038-3.476.221-4.576.646-3.932.463-10.074 3.44-13.053m263.172 3.528-.352.352zm-470.958 8.567c6.966-.855 13.19 1.217 19.403 4.051 1.717.784 5.552 1.7 5.778 3.963.293 2.94-4.163 4.767-6.03 6.206-5.018 3.866-9.984 7.517-15.623 10.452-1.748.91-4.011 2.547-5.978 2.82-1.457.202-1.783-1.463-2.083-2.545-.844-3.053-1.542-6.168-2.55-9.173a103 103 0 0 1-2.705-9.525c-.289-1.24-.977-2.904-.073-4.052 1.292-1.64 7.768-1.94 9.861-2.197m-263.525 2.47c9.76-1.203 18.984 1.566 28.575 2.338 1.883.152 8.872-.04 9.399 2.198 1.053 4.47-5.02 9.166-7.988 11.337-7.616 5.571-15.802 7.948-24.694 10.408-3.825 1.059-8.4 2.675-12.346 2.845-2.25.097-2.072-1.8-2.43-3.474-.725-3.387-1.135-6.803-1.602-10.231-.388-2.85-2.135-9.728-.546-12.249.65-1.032 2.077-1.13 3.165-1.301 2.889-.456 5.584-1.516 8.467-1.871m738.717 12.6.352 1.764c-.86-.568-.938-.913-.352-1.764m.352 2.116.353 1.412zm-696.03 13.406-.353.353zm-3.175 2.822-1.058 1.411zm563.033 3.88.353.353zm135.467 2.822.353.706zM44.67 98.682l.705 1.411z" style="fill:#030303;stroke:none;stroke-width:.352777" transform="translate(507.918 1.993)"/>
</svg>
