<svg xmlns="http://www.w3.org/2000/svg" viewBox="0 0 805.71 110.83"><path d="M40.27 95.43c0-.2.16-.27.35-.15.2.12.35.28.35.37s-.16.16-.35.16c-.2 0-.35-.17-.35-.38m-17.14-2.36a44 44 0 0 1-1.52-2.71c-.16-.43-6.8-9.36-7.51-10.11a60 60 0 0 1-4.24-5.43c-2.34-3.57-5.67-10.2-6.1-12.16-.15-.68-.55-1.23-1-1.4-.43-.16-3.03-.4-5.8-.54a65 65 0 0 1-7.23-.72 9 9 0 0 0-2.36-.3c-.24.22-.03 12.82.3 17.76.16 2.43.3 4.85.3 5.39 0 .53.12 1.4.25 1.94.23.92.21.93-.3.26-.3-.4-.55-.9-.56-1.15 0-.24-.33-.44-.71-.44-.4 0-.71-.16-.71-.35 0-.2-.25-.36-.56-.36-.45 0-.52.31-.38 1.68a16 16 0 0 0 1.36 4.9c.2.42.3.98.2 1.24-.08.26-1.07-1.35-2.18-3.58-2.05-4.12-2.82-5.27-3.24-4.84-.13.13 0 1.07.31 2.1 1.41 4.74.95 5.94-.9 2.36a24 24 0 0 0-2.69-3.86 21 21 0 0 1-2.3-3.1c-.32-.65-.86-1.27-1.2-1.4a4 4 0 0 1-1.18-.95c-.84-1.02-1.5-.33-.87.9.26.49.57 2 .7 3.34l.22 2.45-1.33-1.5c-.73-.83-1.51-1.5-1.74-1.5s-.6-.32-.8-.7c-.64-1.2-1.4-.87-1.43.61l-.02 1.32-.6-.88a29 29 0 0 0-2.1-2.5c-.82-.9-1.5-1.8-1.5-2.01s-.88-1.15-1.96-2.08a37 37 0 0 1-3.81-4c-3-3.72-9.03-13.1-11.29-17.56a517 517 0 0 0-8.64-14.45c-.51-.82-1.07-1.5-1.24-1.5-.87 0 .56 19.69 1.85 25.4.2.88.53 2.62.76 3.88.22 1.27.58 3.1.79 4.06.54 2.45.53 9.93-.02 10.48-.33.33-.42.29-.42-.18 0-.33-.16-.6-.36-.6s-.35.87-.35 1.92c0 1.06-.16 2.02-.35 2.14-.2.12-.35.85-.35 1.62 0 1.13-.16 1.46-.79 1.7-.67.24-.85.12-1.2-.81q-1.51-4.08-1.96-4.1c-.18 0-.21.6-.08 1.33l.24 1.32-.75-.94a4 4 0 0 1-.76-1.24c0-.17-.46-.87-1.03-1.57-.58-.69-1.45-2.18-1.95-3.3l-.9-2.05-2.14.23c-1.81.19-2.45.08-4.31-.7a39 39 0 0 1-8.27-5.34c-6.33-5.64-11.07-9.56-13.85-11.45l-5.65-3.85c-1.26-.86-3.15-2.1-4.2-2.74-1.87-1.14-1.95-1.15-3.09-.6-.73.34-1.57.47-2.27.33l-1.1-.22.25 1.55c.13.85.72 3.85 1.3 6.66s1.2 6.39 1.39 7.94.57 4.3.88 6.1c.3 1.8.45 3.89.32 4.63-.17 1-.03 1.7.55 2.82.81 1.56.68 2.4-.2 1.24-.45-.59-.56-.6-.87-.15-.26.4-.14.69.52 1.18.53.4.88 1 .88 1.54 0 .87-.03.88-.87.32a4 4 0 0 0-1.24-.57c-.54 0-.44 1.15.18 2.02.52.75.5.77-.68.66-1.01-.09-1.77-.69-4.68-3.7-3.72-3.86-5.2-6.11-6.6-10.06-2.28-6.47-3.43-12.41-4.11-21.37a289 289 0 0 0-2.1-17.82c-.17-1.16-.72-4.42-1.22-7.23s-1.18-7.1-1.5-9.5c-.55-4.2-.55-4.42.06-4.77.35-.2 1.08-.8 1.62-1.31a5 5 0 0 1 1.63-1.1c.84-.22 6.63-1.5 10.03-2.22 2.3-.48 3.27-.5 6.88-.15 5.86.58 10.4 2.02 14.24 4.52 3.26 2.12 8.6 7.21 9.22 8.79a20.3 20.3 0 0 1-1.97 15.92c-.56.99-2.56 2.27-3.07 1.96-.2-.13-1.38.2-2.62.74-2.28.96-3 1.94-1.43 1.94.47 0 1.04.23 1.28.52s1.64 1.25 3.13 2.15c4.7 2.83 12.23 8.28 15.04 10.9 3.17 2.94 4.86 3.07 4.08.31-.21-.75-.71-4.14-1.11-7.53-.64-5.4-.72-7.82-.62-19.05.06-7.09-.01-13.07-.16-13.3s-.1-.51.1-.64c.2-.12.36-.58.36-1.02 0-1.04.87-1.82 2.8-2.5 3.61-1.27 5.22-.6 9.09 3.81 1.7 1.95 3.7 4.19 4.44 4.98s2.2 2.62 3.24 4.08 3 4.05 4.34 5.76A48 48 0 0 1-50 35.05c.27.5.8 1.25 1.2 1.67.38.41 1.62 2.23 2.76 4.05 1.48 2.37 2.14 3.16 2.36 2.8.16-.26.33-5.96.36-12.66.1-16.99.12-18.27.42-18.57.15-.14.27-.53.27-.87 0-.71.97-1.03 3.21-1.03 2.61-.01 3.86.36 4.2 1.23.16.43.77 1.55 1.35 2.5a9 9 0 0 1 1.3 4.29c.14 1.4.36 2.56.5 2.56.13 0 .43 1.56.67 3.47.23 1.92.58 3.94.76 4.5 1.55 4.77 2.77 13.43 2.81 19.8.01 2.26.5 3 .81 1.24l.94-5.2c1.15-6.39 2.9-14.02 3.38-14.82.24-.39.79-1.9 1.22-3.35.44-1.45.94-2.88 1.11-3.17s.41-.77.52-1.06.81-1.88 1.55-3.53c1.31-2.95 1.91-4.62 2.29-6.35.37-1.73.99-2.1 3.79-2.34 2.24-.2 2.67-.14 2.86.35.12.32.54.58.94.58.41 0 .88.35 1.1.8.21.5 1.18 1.18 2.4 1.72 2.39 1.05 3.55 2.56 6.9 8.94a60 60 0 0 0 2.35 4.22c.17.18.3.56.3.83s.47 1.47 1.03 2.66 1.58 3.84 2.26 5.88a295 295 0 0 0 4.87 13.1c.2.51.63 1.24.96 1.6.96 1.1 1.47 2.17 1.47 3.09 0 .47.16.96.35 1.08.2.12.36.45.36.73s.3 1.19.67 2c.37.83 1.43 3.24 2.34 5.37s2.65 5.86 3.86 8.3c2.06 4.12 3.18 7 4.03 10.41.2.78.68 2.51 1.07 3.85.93 3.12.94 3.84.04 2.76-.37-.44-.74-1-.82-1.23-.1-.24-.28-.33-.44-.18-.15.14-.08.48.16.77.23.28.56 1.43.74 2.56s.42 2.41.54 2.85c.46 1.55-.54.78-2.14-1.64a22 22 0 0 0-2.12-2.87c-.3-.23-.53-.57-.53-.75 0-.43-1.47-2.42-1.79-2.42-.13 0-.34.24-.45.54-.23.6.43 2.29.89 2.29.16 0 .3.24.3.53s.52 1.29 1.17 2.2c1.18 1.68 1.87 3.8 1.35 4.11-.16.1-.9-.88-1.67-2.17M-5.97 46.9l3.27-.23-.22-1.45c-.21-1.4-.65-3.09-1.95-7.44-1.62-5.4-2.6-8.31-2.87-8.48-.42-.26-1.21 1.45-1.73 3.72a47 47 0 0 1-.73 2.82c-.15.49-.38 1.92-.5 3.18a58 58 0 0 1-.75 4.86c-.29 1.4-.43 2.72-.31 2.9.25.41 1.37.43 5.8.12m-109.25-7.17c.65 0 4.84-4.03 7-6.72 2.08-2.59 4.41-6.1 4.65-7.01.52-2.01-1.73-3.53-5.87-3.97-5.24-.55-7.78-.93-10.37-1.56-1.4-.33-2.63-.54-2.73-.45-.09.1.15 1.03.54 2.09.7 1.92 2.24 9.39 2.82 13.8.57 4.2.6 4.27 2.07 4.03.7-.11 1.55-.21 1.89-.21M38.45 92.39a56 56 0 0 1-2.33-4 16 16 0 0 0-1.51-2.46l-.73-.88.22 1.13c.12.62.5 1.73.85 2.47.78 1.66 1.18 3.63.73 3.63-.39 0-1.26-1.6-1.98-3.64a33 33 0 0 0-2.62-4.7c-2.13-3.29-4.22-8.6-4.22-10.72 0-.56-.14-1.1-.3-1.2-.18-.1-.5-.95-.73-1.87s-.88-3.27-1.46-5.21l-1.78-6c-.4-1.36-.87-2.87-1.04-3.35-.17-.49-.89-3.1-1.59-5.82s-1.43-5.5-1.62-6.18a64 64 0 0 1-1.69-8.1l-.88-7.24c-.94-7.8-.75-7.16-2.5-8.22-.87-.52-1.58-1.2-1.58-1.52 0-1.03 1.47-2.46 3.49-3.41 1.82-.86 2.32-.93 6.23-.89 6.14.07 15.57 1.33 19.03 2.54 4.38 1.54 5.26 1.93 5.73 2.55a14 14 0 0 0 2.31 1.83c2.31 1.53 6.34 5.74 7.3 7.63 1.17 2.3 1.63 5.87 1.14 9a17 17 0 0 1-1.14 4.1c-.4.78-.68 1.71-.63 2.06.11.66-1.53 3.47-3.3 5.66-1.03 1.27-1.28 2.13-.63 2.13.2 0 1.57.67 3.04 1.5l4.12 2.32c.8.46 2.81 1.54 4.45 2.41s3.94 2.31 5.1 3.2c3.31 2.52 3.43 2.43 2.7-2.02-.21-1.26-.53-4.6-.72-7.41-.53-8.16-.65-9.45-1.27-14.11a341 341 0 0 1-1.58-12.72l-.43-4.08-4.23-1.9c-2.8-1.26-4.3-2.12-4.41-2.55-.1-.36-.62-.89-1.17-1.17a8 8 0 0 1-1.99-1.78 9 9 0 0 0-2.3-1.94c-1.46-.76-1.65-1.34-.7-2.16 2.7-2.38 6.89-2.29 19.48.44 2.04.44 4.16.78 4.72.76.89-.04 9.04 1.5 12.57 2.36 3.4.84 9.23 3.88 12.5 6.52.98.8 3.14 2.48 4.8 3.72 6.1 4.6 8.24 8.73 8.81 17.1.42 6 .43 15.13.03 16.17-.17.44-.59 2-.93 3.45-1.4 6-6.31 14.09-9.22 15.2-.45.17-.82.54-.82.83 0 .3-.32.7-.7.9-.4.21-.71.58-.71.83 0 .24-.52.63-1.15.86-.69.25-1.75 1.2-2.64 2.37-.83 1.07-1.66 1.94-1.86 1.94s-.35.31-.35.68-.28.78-.62.89a15 15 0 0 0-2.71 2.15c-1.15 1.07-2.45 2.04-2.89 2.15-1.02.25-1.26.94-1.01 2.93l.2 1.61-.8-1.32c-.87-1.42-1.38-1.57-2.74-.82-.47.26-1.05.4-1.29.31s-1.6.38-3.02 1.04a20 20 0 0 1-4 1.4l-1.4.2 1.05-.47c.59-.27 1.22-.5 1.41-.51.2-.02.65-.25 1-.52.63-.47.62-.52-.09-1.22-.77-.78-2.98-1.03-3.37-.38-.12.2-.65.34-1.17.34-.82-.01-.86-.06-.33-.37a5 5 0 0 0 1.67-2.94c0-.47-.17-.47-1.46-.01-.81.28-1.5.47-1.52.42s-.24-.35-.49-.67c-.38-.51-.23-.7 1.16-1.39 1.85-.92 2-1.44.64-2.06-1.3-.6-4.34-2.66-9.44-6.45a276 276 0 0 0-10.06-6.98c-3.2-2.12-6.79-4.56-7.97-5.44-3.5-2.58-7.43-4.43-9.44-4.44-1.49 0-1.68.08-1.46.62 2.48 6.23 6.04 24.21 4.93 24.87-.36.2-.35.58.04 1.9.28.91.44 1.72.36 1.8s-.66-.9-1.3-2.2c-1.17-2.38-2.08-3.48-1.58-1.9.15.46.4 1.95.56 3.3.15 1.37.46 3.09.69 3.83s.33 1.44.24 1.53-.86-.92-1.7-2.24m52.07-25.25c2.13-2.38 3.69-4.72 5.67-8.49C99 53.3 98.63 43.4 95.4 37.87c-1.73-2.95-5.57-6.57-9.46-8.9-2.95-1.76-6.4-3.37-7.27-3.37-.41 0-.11 4.29.38 5.47.17.39.57 1.74.9 3 .32 1.26.9 3.24 1.26 4.4 1.09 3.45 2.45 9.86 3.34 15.7.78 5.1 2.26 12.77 2.8 14.45.37 1.18 1.08.86 3.16-1.48M32.81 45.62c.45-.82.76-1.68.7-1.9-.25-.82 1.4-2.5 2.65-2.7 2.66-.43 5.05-3.19 5.41-6.26.2-1.76.19-1.8-1.39-3.27-2.85-2.66-12.6-5.92-13.48-4.5-.25.4.92 6.44 1.93 9.9 1.7 5.87 2.2 7.63 2.35 8.47.43 2.25.72 2.3 1.83.26m-447.78 46.61c-1.25-.98-2.6-5.6-2.22-7.6.1-.55.08-3.11-.06-5.7l-.24-4.7-1.3-1.12c-1.94-1.66-2.98-4.36-3.97-10.32a51 51 0 0 0-1.07-5.4c-.26-.25-.81.61-1.1 1.73-.12.48-.33.96-.45 1.05-.13.1-.66.93-1.2 1.86a7 7 0 0 1-2 2.2c-.64.34-.96.73-.83 1.04.11.3-.2.71-.81 1.05-1.74.95-2.68 1.95-2.68 2.85q.01.89-.61.88c-.34 0-.83.25-1.08.56-.25.3-.9.78-1.46 1.06s-2.53 1.72-4.42 3.2a39 39 0 0 1-3.96 2.86c-.3.1-1.02.53-1.6.96q-3.45 2.5-16.94 7.6a64 64 0 0 1-5.82 1.93c-1.07.25-2.73.7-3.7 1s-3.44.65-5.47.77c-2.04.13-5.69.46-8.11.73-2.43.28-4.89.49-5.47.48-1.88-.04.08-.58 3.72-1.02 1.82-.22 3.36-.46 3.43-.53a43 43 0 0 0-4.75-.34c-4.4-.2-12.04-1.09-12.4-1.43-.32-.33.4-.9.94-.76.32.1 1.6.28 2.85.41 1.9.2 2.22.16 2.06-.27-.48-1.24.21-1.41 3.55-.89 1.76.28 3.4.39 3.64.24.27-.17-.1-.36-.95-.5-2.23-.38-2.4-.47-1.94-1.04.59-.7.13-.86-3.18-1.1-1.61-.1-3.18-.35-3.48-.54q-.6-.36.7-.13c1.59.27 2.28-.4 1.78-1.69-.18-.48-1.53-1.96-3-3.28-3.09-2.77-4.27-4.9-6.64-11.96-1.22-3.66-3.01-11.32-3.02-12.9 0-.29-.26-3.23-.58-6.52a111 111 0 0 0-2.34-15.37 79 79 0 0 1-2.07-14.97c-.3-5.29-.02-14.29.52-17.1.52-2.75 3.65-4.85 7.6-5.1 1.1-.06 2.52-.37 3.18-.67s2.08-.65 3.14-.79c1.07-.13 2.9-.56 4.06-.95 2.58-.86 5.99-.88 17.64-.11 8.33.55 10.87 1.06 13.23 2.66.48.33 1.98 1.14 3.33 1.8s2.72 1.45 3.05 1.74 1.29 1 2.13 1.58c4 2.78 8.06 7.64 9.35 11.22.87 2.39 1.02 6.49.31 8.36-.33.88-.63 2.2-.67 2.94s-.3 1.5-.59 1.67c-.44.29-.44.38.02.68.45.3.46.4.03.68-.27.17-.7.24-.94.15-.57-.22-1.99.53-1.75.92.1.16 1.04.3 2.09.32 1.04.01 2.99.26 4.32.56l4.75 1.05c4.15.93 6.07 1.89 10.97 5.46 1.3.95 1.46.07.86-4.43-1.32-9.83-1.33-10.1-.38-12.08a5 5 0 0 1 2-2.36c.64-.32 1.4-.78 1.69-1.03 1.1-.93 7.63-1.68 13.1-1.5 4.4.13 5.38.27 6.63.92.8.42 1.76.76 2.13.76s.78.17.9.37c.13.2 1.1.77 2.14 1.25 1.05.48 1.9 1.02 1.9 1.2 0 .2.38.44.84.55 1.9.48 8.34 8.35 8.34 10.19 0 .26.23 1 .5 1.66s.43 1.66.34 2.24c-.3 2.07-.96 4.95-1.2 5.3-.14.19-.44.98-.68 1.76s-.85 2.4-1.36 3.62l-.93 2.2h-2c-1.47 0-2.22.19-2.91.73-.51.4-.93.86-.93 1.01s.66.72 1.46 1.25 1.8 1.33 2.2 1.77c1.04 1.1 6.34 5.67 8.83 7.59 4.61 3.56 6.4 5.38 8.2 8.33 1.15 1.92.78-1.1-.77-6.22-1.93-6.34-3.28-13.54-3.37-18.05a113 113 0 0 0-.33-6.17c-.15-1.72-.38-5.14-.5-7.62-.19-3.86-.14-4.54.32-4.71.3-.12.54-.44.54-.71 0-.28.24-.6.54-.71.58-.23 1.58-2.3 1.58-3.28 0-1.05 2.03-1.73 4.3-1.42 3.46.47 6.26 3.46 7.26 7.75.64 2.76 2.5 14.7 3.11 19.93.1.78.25 1.65.36 1.94s.42 2.03.7 3.86.67 3.9.9 4.59c.21.69.75 2.36 1.2 3.72a69 69 0 0 1 2.66 9.8c1 4.94 1.07 9.1.18 10.09-.49.54-.6 1.03-.44 1.89.68 3.52.67 3.32.13 2.66-.7-.85-2.36-1.67-2.95-1.44-.26.1-.48.48-.48.83 0 1.03-.63 1.15-1.78.33a5 5 0 0 0-1.85-.86c-1.98-.25-3.8-1.34-4.38-2.62-.53-1.16-.6-1.2-.72-.46-.08.46.1 1.45.41 2.22.77 1.92.72 2.1-.54 1.84-1.08-.21-1.1-.2-.85.9.18.8.11 1.1-.23 1.1-.7 0-2.87-1.4-4.43-2.86-.76-.7-1.84-1.52-2.41-1.82s-2.86-2.3-5.1-4.44a503 503 0 0 0-10.4-9.58c-3.5-3.13-6.75-6.05-7.23-6.5-1.5-1.37-6.7-5.49-6.95-5.49-.12 0-.93.42-1.8.92l-1.56.92.3 1.82c.43 2.56.32 11.68-.17 13.92a6 6 0 0 0 .15 3.79c.3 1.05.45 2.07.32 2.28s-.03.6.2.9c.71.85.88 9.9.22 11.45-1.18 2.75-3.69 4.05-5.33 2.76m-78.51-9.48c0-.2-.36-.35-.8-.34-.64 0-.7.07-.26.34.68.44 1.06.44 1.06 0m9-10.36c.38-.26 1.97-.6 3.52-.73a28 28 0 0 0 5.3-1.07c1.35-.45 3.1-.91 3.87-1.02 2.4-.34 8.96-2.45 11.66-3.76a8 8 0 0 1 1.83-.7c.22 0 .84-.36 1.39-.81a19 19 0 0 1 3.04-1.8 25 25 0 0 0 3.53-2.1c.82-.61 1.88-1.37 2.36-1.69 3.46-2.24 6.8-7.09 6.85-9.97.04-1.7.07-1.68-7.38-2.5a85 85 0 0 1-6.52-.89c-.68-.17-3.62-.65-6.53-1.07-4.38-.62-6.5-.73-12.35-.62-6.45.12-7.18.2-8.54.92-.89.47-2.16.79-3.17.8-2.27.04-4.72.73-5.17 1.45-.54.88.64 13.53 1.9 20.22.17.97.42 2.48.54 3.36s.28 1.78.35 2.02c.18.6 2.65.57 3.52-.04m74.04-30.38c.21-.4.9-1.46 1.53-2.39a8 8 0 0 0 1.15-2.13c0-.25.18-.63.4-.85 1.1-1.1 3.83-6.7 3.83-7.84 0-1.34-.57-1.64-3.73-1.95-2.73-.27-6.37.23-7.12 1-.5.5-.25 2.79.83 7.47.27 1.17.59 3.15.7 4.4.12 1.26.28 2.5.36 2.75.2.68 1.6.36 2.05-.46m-79.29-16.32c.86-.53 2.07-1.32 2.7-1.75.62-.43 1.69-1.1 2.36-1.51.68-.4 1.95-1.2 2.83-1.76.87-.57 3.01-1.85 4.76-2.84l5.82-3.36a18 18 0 0 1 3.77-1.77c2.14-.42 1.8-2-.52-2.44a5 5 0 0 1-1.92-.78c-.33-.3-1.6-.65-2.82-.78a12 12 0 0 1-2.92-.62 9 9 0 0 0-2.3-.63c-.87-.14-2.61-.54-3.87-.9-3.02-.85-12.16-.85-12.74 0-.52.76-.07 7.6.75 11.64.38 1.85.86 4.3 1.07 5.47.64 3.55.62 3.53 3.03 2.03M179.7 91.84c-.22-.63-.58-2.21-.8-3.52-.42-2.45-1-3.33-1.94-2.97-.43.17-.47.37-.18.9.26.5.25.76-.02.93-.24.15-.31.87-.2 1.88.19 1.56.18 1.57-.17.4-.2-.68-.57-1.72-.83-2.3a25 25 0 0 1-.88-2.38q-.41-1.34-1.06-1.32c-.59 0-.63.21-.45 2 .15 1.46.1 1.92-.2 1.74-.23-.14-.41-.53-.41-.87s-.54-1.14-1.2-1.77a9 9 0 0 1-1.79-2.63c-.33-.8-.9-2.1-1.27-2.88a7 7 0 0 1-.68-2.51c0-.61-.22-1.75-.5-2.53-.44-1.25-1.44-5.65-3.75-16.48a49 49 0 0 1-.77-4.41l-.1-1.24-7.4-.42c-4.08-.24-9.1-.67-11.18-.97-5.15-.74-5.57-.73-5.62.25-.03.43-.1 1.19-.17 1.67-.07.49-.22 3.98-.33 7.76a129 129 0 0 1-.54 9.24c-.18 1.3-.33 3.08-.33 3.95 0 2.12-.52 3.4-1.38 3.4-1.43 0-1.85.94-1.6 3.57.16 1.54.12 2.42-.1 2.42-.44 0-.8-1.68-.8-3.7 0-.89-.21-1.68-.52-1.93-.83-.7-1.33-.07-1.1 1.35l.22 1.28-.71-.83a3 3 0 0 1-.74-1.23c-.12-1.77-.85-2.85-1.37-2.02-.17.27-.25.67-.19.88.38 1.27.46 2.67.17 2.67-.2 0-.35-.27-.35-.61s-.63-1.54-1.4-2.67c-1.96-2.89-2.84-5.47-3.4-9.94l-.84-6.73c-.47-3.73-.44-13 .04-14.8.21-.77.5-2.6.66-4.05 1-9.58 2.78-17.78 4.62-21.25l1.53-2.89c1.06-2 2.57-4.46 5.33-8.67.44-.68 1.1-1.8 1.47-2.5s1.14-1.89 1.74-2.64a11 11 0 0 0 1.3-2c.11-.33.65-.7 1.2-.83 1.15-.28 2.22-1.12 2.22-1.76 0-.25.59-.94 1.31-1.53 2.5-2.06 6.44-1.27 9.4 1.87 2.51 2.66 5.2 5.92 6.41 7.76.65 1 2.02 3 3.03 4.45 1.62 2.34 4.9 7.64 4.9 7.93 0 .06.69 1.6 1.54 3.41a74 74 0 0 1 2.28 5.42c.9 2.59 2.4 8.89 2.69 11.29.2 1.74.89 2.9 1.48 2.54.17-.1.17-1.88 0-4.01-.54-7.09.02-17.45 1.16-21.46.8-2.8.8-2.95-.33-3.53-.8-.4-1.06-.79-1.05-1.5.01-1.38.94-2.28 3.1-3.04 1.67-.6 2.6-.65 7.94-.48 4.49.15 6.7.38 8.52.9 1.36.38 3.1.8 3.88.93 4.4.74 11.82 4.71 14.81 7.92a60 60 0 0 0 2.22 2.29c3.94 3.46 4.46 4.66 4.2 9.79-.35 6.96-.65 7.7-4.8 11.75-.98.97-1.79 1.94-1.79 2.17s.6.66 1.33.95c2.89 1.16 9.56 4.52 9.97 5.01.24.3.77.53 1.2.53.41 0 1.1.24 1.51.53.42.29 1.6.95 2.62 1.47a12 12 0 0 1 3.42 2.23c.33.3 1.06.74 1.61.98.96.43 4.03 2.51 8.08 5.46 2.13 1.55 3.33 1.67 4.48.44 1.26-1.34 1.77-1.14 1.77.7 0 .88-.16 1.6-.35 1.6-.2 0-.36.25-.36.56 0 .43.22.52.88.35.83-.21.89-.14.89 1.18 0 1.22.16 1.52 1.28 2.28l1.28.87-1.34.11c-1.64.14-2.13 1-.57 1 .8 0 1.13.2 1.31.79.14.43.51.98.82 1.22.5.38.45.43-.31.43-.49 0-1.28-.23-1.77-.5-1.12-.64-2.93-.7-2.73-.1.08.25.57.5 1.1.56.8.1.92.24.72.85-.18.58-.1.69.36.5.85-.32 2.7.7 2.44 1.36-.27.7-.59.67-3.48-.35-2.93-1.03-2.64-.98-2.64-.44 0 .28-.67.47-1.88.53-1.51.07-2.54-.19-5.37-1.36-1.93-.8-4.09-1.66-4.79-1.92-.7-.27-3.16-1.45-5.47-2.64a315 315 0 0 0-17.42-8.19c-1.84-.78-4.7-2.01-6.35-2.73s-3.55-1.54-4.22-1.8c-.68-.28-2.77-1.26-4.64-2.18-1.88-.92-3.66-1.67-3.96-1.67-1.15 0-1.27-.74 2.58 16.75 1.3 5.85 1.83 10.57 1.4 12.38-.17.76-.32 2.06-.32 2.88 0 1.29-.11 1.5-.76 1.5-.6 0-.7.16-.54.77.11.43.01 1.01-.22 1.3-.34.4-.33.55.01.66.24.08.44.3.44.5 0 .18-.16.24-.37.11-.2-.12-.6-.03-.88.2-.43.36-.51.2-.52-1.12 0-.84-.24-1.84-.53-2.22-.63-.84-1.18-.42-.61.48q.64 1.06-.5 1.08c-.26 0-.47-.34-.47-.75s-.32-1.27-.7-1.9c-.4-.63-.89-2.08-1.1-3.22-.52-2.9-1.14-3.35-.88-.65.63 6.54.64 6.88.25 6.88-.24 0-.39-.8-.39-2.1q0-2.07-.53-2.62c-.29-.29-.53-.68-.53-.88s-.24-.4-.54-.46c-1.27-.27-4.54-9.68-6.74-19.33-.28-1.26-.69-2.4-.9-2.53s-.3-.48-.17-.79c.12-.33-.03-.7-.38-.88-.49-.28-.5-.42-.12-.9.39-.46.37-.59-.1-.77-.83-.31-1.63.09-1.63.82 0 .6 1.73 8.07 2.46 10.68 1.58 5.56 2.56 16.04 1.78 18.86-.53 1.88-.76 1.8-1.24-.43-.48-2.2-1.28-2.45-1.09-.34.48 5.1.67 6.5.96 7.05.18.34.2.61.03.61-.16 0-.47-.51-.7-1.14M147.7 37.98c.97-.19 3.96-.45 6.65-.6 3.58-.18 4.93-.37 5.06-.72.2-.54-.9-4.96-2.25-8.94-2.2-6.55-6.55-15.6-7.6-15.8-.64-.13-1.12.76-2.57 4.86a67 67 0 0 1-1.86 4.59c-.58 1.26-1.2 3-1.4 3.88-.55 2.47-2.49 9.64-2.9 10.72-.2.53-.36 1.37-.36 1.87v.9l2.73-.2c1.5-.12 3.53-.37 4.5-.56m47.16-2.92a19 19 0 0 0 6.11-4.57c3.57-3.73 3.82-4.94 1.34-6.29l-1.87-1.02c-2.89-1.65-9.39-4.1-11.47-4.34-.97-.1-1.06-.02-1.17 1.09-.06.66.06 2.2.27 3.4.21 1.22.47 3.14.57 4.27.42 4.62 1.19 8.4 1.8 8.84.33.25.68.45.76.45.09 0 1.73-.82 3.66-1.83m70.18 53.18c-.22-.86-.4-1.96-.4-2.45 0-.48-.16-.98-.35-1.1-.2-.12-.63-.8-.96-1.52l-.6-1.3-.12 1.5c-.07.82-.25 1.5-.4 1.5-.3 0-1.1-2.38-1.1-3.27 0-.3-.27-.88-.61-1.3-.6-.74-.62-.72-.5 1.2.16 2.5-.44 2.56-1 .1a8 8 0 0 0-.9-2.38c-.44-.5-2.27-5.7-2.27-6.42 0-.2-.23-.85-.51-1.46s-.6-1.9-.7-2.87l-.7-6.7a93 93 0 0 0-.87-6.53c-.19-.88-.52-3.73-.74-6.35-.82-9.72-2.08-19.32-2.8-21.25-.27-.73-.75-.86-6.25-1.6-3.27-.44-6.6-.87-7.37-.95-.77-.09-2.97-.48-4.89-.88a37 37 0 0 0-4.45-.72c-.54 0-1.17-.23-1.4-.51a3.3 3.3 0 0 0-1.54-.75c-.68-.15-1.85-1-3.02-2.19-1.05-1.06-2.32-2.04-2.83-2.18-.5-.13-.9-.43-.88-.66l.09-1.45c.06-1.23 2-2.62 3.62-2.57.56.02 1.02-.1 1.02-.26 0-.5 2.14-.73 10.05-1.08 16.15-.71 35.58-.37 41.98.74 2.32.4 3.2.65 6.35 1.75 1.16.41 2.78.96 3.6 1.22 1.66.54 3.28 1.51 3.28 1.98 0 .17-.4.31-.88.31-1.67 0-.88.58 1.46 1.07 1.3.27 2.61.77 2.92 1.1s.97.78 1.45.97c.73.29.52.35-1.25.38-2.08.03-3.63.68-3.21 1.35.1.18.96.44 1.88.57.93.13 2.08.46 2.57.74.86.49.85.5-.7.52-1.56.01-2.83.47-2.43.87.1.11.82.5 1.57.88 1.21.59 1.3.7.68.92a97 97 0 0 0-2.83 1.12c-5.86 2.4-7.7 2.9-10.58 2.9-3.03-.01-5.9-.32-10.92-1.18-2.01-.34-3.24-.41-3.38-.2a6 6 0 0 0-.11 2c.05.91-.08 1.86-.3 2.12q-.46.52.2.25c.47-.19.58.02.6 1.13.02.75.1 1.76.18 2.25.08.48.2 1.69.26 2.67.07.99.22 1.94.33 2.12.1.18.32.96.46 1.74.14.77.34 1.56.44 1.74.32.54.58 4.52.36 5.49q-.1.5.47.43c.5-.08.63.36.84 2.64.14 1.51.38 2.92.55 3.12.16.2.4 1.28.53 2.38.18 1.5.13 2-.2 2-.34 0-.39.56-.21 2.21.12 1.22.3 3.8.38 5.74s.38 4.77.65 6.3c.47 2.63.46 2.79-.15 2.95-.48.13-.6.4-.48 1.1.85 4.67.86 4.37-.09 4.19l-.86-.17.24 2.3c.28 2.6-.32 2.89-.72.35-.34-2.17-.53-2.74-.96-2.74q-.38-.02-.12 2.83c.13 1.55.17 2.82.08 2.82-.08 0-.33-.7-.55-1.57m2.57-28.33a9 9 0 0 0-.52-1.85c-.24-.45-.32-.43-.53.11-.13.35-.07.82.15 1.04s.4.77.4 1.21c0 .45.17.81.37.81.24 0 .28-.48.13-1.32m-578.38 24.87a67 67 0 0 0-5.05-4.32c-2.5-1.86-4.14-4.24-5.56-8.05a64 64 0 0 0-1.66-3.94 45 45 0 0 1-1.58-3.89c-1.14-3.4-3.17-7.04-4-7.16a2 2 0 0 1-1.18-.62c-.31-.37-1.24-.5-3.41-.5-2.32 0-3.2-.15-3.93-.65-1.25-.86-4.9-1.7-5.37-1.24-.3.31.46 7.16.88 7.84.08.13.4 2.13.72 4.46.32 2.32.73 4.38.92 4.56.18.18.33.76.33 1.28s.47 2.27 1.04 3.88 1 2.98.95 3.04-.48-.3-.94-.78c-1.01-1.08-1.76-1.13-1.76-.12 0 .9 1.35 4.78 2 5.76.87 1.3.47 1.12-1.3-.58-1.3-1.27-2.03-1.7-2.81-1.7-1.24 0-1.22-.07-.5 1.74.8 2.03.46 2.55-.77 1.17-.55-.63-1.2-1.15-1.44-1.15s-1-.33-1.69-.74-1.5-.65-1.78-.54q-.53.21-.75-.76c-.3-1.2-2.34-5.14-3.5-6.76-.49-.66-1.13-2.1-1.42-3.17-.3-1.08-.76-2.68-1.03-3.55-.49-1.6-.87-4.32-1.59-11.38-.74-7.27-.43-18.45.67-23.9 1.3-6.47 1.58-7.45 3.05-10.76l1-2.3c.13-.28.54-1 .92-1.58.39-.58.8-1.3.93-1.59.58-1.32 2.46-2.84 3.77-3.05q1.38-.21 1.64-.96a5.7 5.7 0 0 1 2.92-2.66c.84-.31 1.41-.13 4.42 1.4 7.36 3.72 12.67 10.54 15.25 19.56 1 3.5 2.43 7.78 5.13 15.35a79 79 0 0 0 1.98 4.93c.57 1.26 1.6 3.72 2.28 5.47l1.87 4.77c.35.87.9 2.54 1.23 3.7.83 2.9 4.4 12.44 5.2 13.87 1.03 1.84.76 2.14-.55.6-1.33-1.57-1.96-1.52-1.13.08.3.57.45 1.35.35 1.74-.2.78 1.04 3.12 1.83 3.42.56.22.7.93.19.93-.18 0-.78-.48-1.33-1.07-1.45-1.55-2.52-2.18-3.3-1.93q-1.4.44.19 1.94c.8.76 1.24 2.48.61 2.46-.14 0-1.47-1.15-2.94-2.55m-27.13-41.86 4.06-.2.1-.97a5 5 0 0 0-.42-2.11c-.3-.64-1.09-2.83-1.75-4.87-1.88-5.78-3.48-9.66-4.17-10.09-.16-.1-.45.27-.64.81-.2.55-.52 1.29-.73 1.65-.64 1.1-1.42 5.5-1.76 9.93-.17 2.33-.4 4.6-.51 5.04-.27 1.1.09 1.56 1 1.27.42-.14 2.59-.35 4.82-.46m50.95 42.12c-.53-.69-2.26-2.1-3.85-3.14a19 19 0 0 1-5.24-4.89 28 28 0 0 1-2.35-3.26c0-.14-.66-1.7-1.46-3.47a39 39 0 0 1-2.07-5.87 41 41 0 0 0-1.38-4.59 94 94 0 0 1-2.17-7.58l-1.73-6.88c-.18-.68-.65-3.46-1.07-6.18a86 86 0 0 0-1.06-6c-.32-1.09-1.37-8.75-1.67-12.16-.24-2.81-.16-3.95.33-4.88.35-.67.34-.87-.08-1.14s-.4-.32.12-.33c.39 0 .78-.42 1-1.06.34-.96.52-1.06 1.9-1.06.85 0 1.64.16 1.76.35.12.2.56.27.99.17 1.4-.34 6.67 3.04 12.2 7.81.7.6 1.76 1.35 2.36 1.66s2.27 1.78 3.7 3.27l3.8 3.95a25 25 0 0 1 2.4 3.14c1.14 1.78 6.48 9.04 7.22 9.8.2.21.25-1.61.14-4.76-.21-6.22.74-17.8 1.6-19.43.17-.3.34-1.77.39-3.26.08-2.65.1-2.7 1-2.7.5 0 1.1-.18 1.31-.4.36-.35 1.2-.32 4.63.16 1.13.16 3.8 3.64 3.9 5.1.22 2.78.17 4.01-.3 7.54-.49 3.77-.47 4.3.52 13.53a39 39 0 0 0 .69 3.88c.27 1.16.9 4.42 1.42 7.23 1.46 8.1 1.71 9.17 2.16 9.17.36 0 .9 1.48 2.14 5.82.12.4 1.05 2.3 2.09 4.24 2.28 4.3 3.44 8.9 1.83 7.3a1.7 1.7 0 0 0-1.05-.42c-.97 0-.8 1.1.6 3.83 1.5 2.97 1.58 3.76.17 1.99q-2.14-2.69-3.26-3.1c-.88-.33-.78.4.28 1.96.7 1.03.77 1.31.35 1.31-.3 0-.54.18-.54.4 0 .29-.13.29-.49 0-.26-.23-.75-.3-1.07-.18-.34.13-.88-.04-1.28-.4q-1.13-1.05-.35 1.04c.5 1.3-.13 1.14-1.3-.35a18 18 0 0 0-3.27-2.8 37 37 0 0 1-3.83-2.98c-.85-.79-2.2-1.98-3-2.65s-1.99-1.9-2.63-2.73c-3.1-4.04-7.4-9.88-8.89-12.1a15673.4 15673.4 0 0 1-9.1-13.35c-.92-1.33-1.82-2.72-2-3.1-.33-.6-1.49-1.24-1.77-.96a21 21 0 0 0 .55 3.3c.37 1.75.84 5 1.06 7.23.49 5.14 1.04 7.3 3.12 12.35a52 52 0 0 1 2.12 6 36 36 0 0 0 2.17 5.54c.96 1.98 1.73 3.7 1.73 3.82s-.48-.14-1.07-.56c-1.27-.9-1.67-.7-1.1.57.23.5.32 1.06.2 1.25-.23.38.74 2.63 1.28 2.96.19.12.34.36.34.55 0 .61-1.23.34-2.57-.57q-2.46-1.68-1.46.72c.6 1.43.61 1.59.17 1.59-.18 0-.76-.56-1.28-1.24m158.28-1.2a5 5 0 0 1-1.76-1.68c-.79-1.47-2-2.94-2.44-2.94-.2 0-.42.35-.48.76-.1.6-.62.04-2.45-2.56-2.15-3.05-6.3-10.83-6.3-11.8 0-.44-1.05-2.89-2.95-6.94l-1.12-2.38-1.58-.04c-.88-.02-2.3-.1-3.18-.16l-7.03-.54-5.45-.41-.67.82c-.48.6-.6 1.12-.44 1.9.53 2.52.6 3.8.23 4.17-.78.78-.5 2.02 1.74 7.84 3.22 8.33 3.34 9.28 1.41 11.38-1 1.1-2.84 1.6-2.84.77 0-.46-2.74-1.73-3.76-1.74-1.09-.01-6.04-5.95-7.22-8.65a51 51 0 0 1-2.46-7.32c-.49-1.73-.97-2.06-1.73-1.15-.24.3-.66.53-.94.53s-.93.44-1.46.97c-1.88 1.91-3.63 3.23-4.07 3.06-.25-.1-1.51.6-2.8 1.56-1.3.96-3.9 2.41-5.8 3.24-5.93 2.57-8.64 3.89-10.13 4.9-2.24 1.54-4.07 2.38-8.15 3.75-3.94 1.31-5.2 1.42-2.58.22 2.76-1.27.28-.85-3.98.66-5.72 2.04-5.5 1.98-4.96 1.31.25-.3 1.16-.89 2.01-1.29a5 5 0 0 0 1.94-1.44c.4-.75.04-.96-.57-.35-.2.2-.91.43-1.57.52-1.27.16-7.5 1.71-8.49 2.1-.82.33-1.25-.93-.48-1.4 1.86-1.11 1.8-1.25-.36-1.01-1.16.13-2.5.37-2.96.55-1.36.5-1.3.02.1-.64 1.5-.72 1.6-1.03.39-1.33-.97-.24-2.02.18-3.26 1.3l-.8.73v-.78c0-1.71 1.35-3.51 3.53-4.7 1.16-.65 2.11-1.3 2.12-1.47 0-.16-.3-.72-.66-1.23-1.21-1.73-2.22-4.02-3.62-8.21a100 100 0 0 0-2.11-5.86 82 82 0 0 1-2.95-8.39c-.3-1.32-1.52-8.4-1.96-11.46-.19-1.26-.5-3.25-.7-4.41a202 202 0 0 1-2.1-19.4c-.22-3.3-.57-6.59-.78-7.3-.47-1.57-.48-2.21-.12-7.02l.27-3.73-1.19-1.15a9 9 0 0 0-1.98-1.46c-.84-.34-1-1.31-.58-3.46.2-.96.37-1.1 1.33-1.08.6 0 3.48-.28 6.4-.64 5.46-.68 11.28-.56 13.75.28.58.2 2.4.67 4.06 1.05 6.33 1.44 10.51 2.73 13.05 4.01 2.7 1.36 5.66 3.88 6.55 5.57.27.52 1.3 1.87 2.3 3a26 26 0 0 1 3.16 4.87c1.36 2.8 1.36 2.85 1.4 7.4.03 2.53-.01 4.83-.1 5.12-.08.3-.35 1.09-.59 1.77s-.59 1.87-.78 2.64a9 9 0 0 1-.85 2.2c-.79 1.2-.64 1.42 1.31 1.84 1 .21 2.53.7 3.4 1.09.87.38 1.77.7 2.01.7.6 0 6.62 3.12 9 4.66 1.07.7 2.49 1.83 3.16 2.53s1.32 1.27 1.45 1.27.43-1.47.66-3.26c.4-2.92.75-4.47 2.33-10.14 1.4-5.05 3.74-9.14 7.74-13.52 3.22-3.54 5.46-5.18 7.03-5.18.6 0 1.88.38 2.85.86.97.47 3.12 1.43 4.77 2.13 3.4 1.45 3.16 1.32 5.76 3.1 3.98 2.7 6.29 6.27 9.43 14.55 1.83 4.81 1.81 4.76 2.92 7.76.5 1.36 1.73 4.53 2.73 7.05a91 91 0 0 1 2.14 5.82c.18.68.7 2.5 1.16 4.06 1.94 6.56 2.6 8.94 3.01 10.94.24 1.16.56 2.43.72 2.82.76 1.89 1.78 7.35 1.9 10.14.1 2.36-.19 3.09-1.24 3.09-.87 0-1.14 1.22-.7 3.17.2.87.32 1.6.28 1.64s-.6-.22-1.27-.56m-86.02-16.65c4.18-2.08 8.99-4.85 11.02-6.35.78-.57 1.81-1.31 2.3-1.64a63 63 0 0 0 4.58-3.49c.3-.27 1.27-.98 2.18-1.56 3.8-2.45 5.31-4.8 3.9-6.08-.36-.32-3.35-1.8-6.63-3.28-4.9-2.2-6.54-2.77-9.15-3.17a34 34 0 0 0-12.35.2c-2.13.4-4.45.8-5.15.9-1.58.23-2.07 1.18-1.64 3.17.16.77.44 2.12.6 3 .17.87.88 3.33 1.6 5.46.7 2.14 1.92 6.17 2.69 8.97a92 92 0 0 0 1.59 5.38c.3.5.74.35 4.46-1.5m61.53-26.03c-.12-.58-.48-1.66-.8-2.4s-.63-1.58-.67-1.87a109 109 0 0 0-2.83-7.7 4 4 0 0 0-1.28.12c-.9.16-1.2.4-1.22.99-.1 1.86-.63 4.32-.98 4.55q-.42.24.05.69c.6.6.55 1.7-.1 2.43-.75.81-.35 2.28.84 3.1 1.26.89 1.42.92 4.51 1.04l2.7.1zm-72.2-17.5c6.2-4.37 10.62-10.12 10.17-13.22-.1-.69-.45-.93-1.88-1.3-1.13-.28-1.98-.76-2.4-1.34-.48-.64-.98-.9-1.82-.9-.64 0-1.58-.33-2.1-.74-.82-.64-1.39-.74-3.83-.7-1.83.04-2.98.21-3.16.49-.54.84-1.02 3.16-.77 3.73.14.32.22.73.17.91s.17 1.38.47 2.65c1.02 4.33 1.32 6.19 1.28 7.85s.54 4.51.92 4.51c.1 0 1.44-.87 2.96-1.94m-151.65-12c-1.52-1.55-2.5-2.29-3.08-2.29-.47 0-.85-.16-.85-.36s-.63-1.04-1.4-1.87c-1.74-1.9-3.43-5.43-3.72-7.78-.3-2.44.37-9.98 1.01-11.5.9-2.12 2.07-2.95 4.08-2.88 2.92.1 4.96 1.29 7 4.06 3.55 4.86 4.57 7.72 4.9 13.75.2 3.74.15 4.56-.29 4.92a5 5 0 0 0-.98 1.9c-.43 1.36-.38 2.21.21 3.88q.24.64-1-.51c-1.36-1.3-2.24-1.24-2.77.15-.18.46-.44.83-.6.83-.14 0-1.27-1.03-2.5-2.3" style="fill:currentColor;stroke-width:.352777" transform="translate(513.34 15.02)"/></svg>